<?xml version="1.0" standalone="no"?>
<!DOCTYPE svg PUBLIC "-//W3C//DTD SVG 1.1//EN" "http://www.w3.org/Graphics/SVG/1.1/DTD/svg11.dtd" >
<svg xmlns="http://www.w3.org/2000/svg">
<metadata></metadata>
<defs>
<font id="SantaFeLETPlain" horiz-adv-x="819" >
<font-face units-per-em="2048" ascent="1638" descent="-410" />
<missing-glyph horiz-adv-x="450" />
<glyph horiz-adv-x="0" />
<glyph horiz-adv-x="2048" />
<glyph unicode="&#xd;" horiz-adv-x="450" />
<glyph unicode=" "  horiz-adv-x="450" />
<glyph unicode="&#x09;" horiz-adv-x="450" />
<glyph unicode="&#xa0;" horiz-adv-x="450" />
<glyph unicode="!" horiz-adv-x="683" d="M198 76.5q0 42.5 32 75.5t74 33t64.5 -22.5t22.5 -65.5t-29.5 -77t-72.5 -34t-67 24t-24 66.5zM311 286q0 28 27 85l311 667q29 62 49.5 82t53.5 20t55 -19.5t22 -48t-27 -85.5l-311 -667q-28 -60 -49 -81t-54.5 -21t-55 20t-21.5 48z" />
<glyph unicode="&#x22;" horiz-adv-x="517" d="M163 858q0 25 24 76l57 123q28 66 50 79t48 13t45 -18t19 -42.5t-24 -77.5l-57 -123q-25 -54 -44 -73t-49 -19t-49.5 18.5t-19.5 43.5zM397 857.5q0 24.5 24 76.5l58 123q26 56 44.5 74t49 18t49.5 -18t19 -42.5t-24 -77.5l-58 -123q-25 -54 -44 -73t-49 -19t-49.5 18.5 t-19.5 43z" />
<glyph unicode="#" horiz-adv-x="1336" d="M6 145q0 70 64 205l133 285q30 63 49.5 82.5t52.5 19.5t55.5 -19.5t22.5 -48.5t-27 -85l-144 -310q-6 -10 -19 -43t-13 -47.5t9.5 -25t22.5 -10.5q53 0 156 112l5 5q13 41 39 95l129 275q29 62 49.5 82t53 20t55 -19.5t22.5 -47t-27 -86.5l-127 -272q-40 -87 -40 -125.5 t45 -38.5q83 0 219 300l88 187q27 58 43 73q17 15 53 15h476q66 0 91.5 -16t25.5 -59t-44 -64q-24 -11 -90 -11h-407l-62 -134q-48 -100 -63 -133q-50 -103 -101 -168q-126 -152 -257 -152t-177 91q-98 -91 -204 -91q-69 0 -113 44.5t-44 114.5z" />
<glyph unicode="$" horiz-adv-x="889" d="M-14 246q0 111 88 111q57 0 72 -63q36 -149 169 -149q78 0 130 51t52 119.5t-44 148.5l-42 79q-47 86 -68.5 153t-21.5 143.5t43 148t121.5 112t173.5 40.5h12l51 110q29 62 50.5 81.5t54.5 19.5t54.5 -19.5t21.5 -47t-27 -86.5l-43 -92q64 -28 107.5 -85t43.5 -103.5 t-21.5 -70.5t-60.5 -24t-68 48l-21 36q-49 83 -148 83q-71 0 -119.5 -46.5t-48.5 -120.5q0 -56 45 -139q110 -206 121 -255t11 -119t-47 -150t-130.5 -127t-181.5 -47h-4l-54 -116q-28 -60 -49 -81t-53.5 -21t-55 20t-22.5 48t26 85l46 97q-71 34 -117 102t-46 126z" />
<glyph unicode="%" horiz-adv-x="1119" d="M109 71q0 39 73 124l532 639q71 85 112 115q-73 -35 -130 -35t-98 18q4 -15 4 -29q0 -67 -40 -133.5t-100.5 -108.5t-134 -42t-123.5 56t-50 131q0 143 84 240q38 44 86.5 69t99.5 25t115.5 -30t92 -38.5t50.5 -8.5q59 0 81 7q99 30 157.5 50t89.5 20t56.5 -22.5 t25.5 -55.5t-66 -113l-467 -559q-52 -65 -135 -148q47 19 94.5 19t87.5 -28q2 68 41 131q40 63 103 103t121 40t99 -25q84 -52 84 -151t-38 -176.5t-102 -123t-120 -45.5t-77 9.5t-79 48.5q-88 63 -151 63t-125 -32q-19 -9 -76.5 -49t-92.5 -40t-60 23q-24 23 -24 62z M297 834.5q0 -31.5 14 -48.5t46 -17t70.5 53.5t38.5 94.5q0 75 -52 75q-25 0 -53.5 -25.5t-46 -63t-17.5 -69zM742 210q0 -77 53 -77q26 0 55 26q27 26 45 66.5t18 72.5q0 65 -50 65q-41 0 -81 -55t-40 -98z" />
<glyph unicode="&#x26;" horiz-adv-x="1383" d="M229 210q0 140 144 269q70 64 164 113q-31 58 -31 127.5t44 146.5q92 161 293 235q99 35 198.5 35t155.5 -40.5t56 -107.5t-55 -181q-18 -40 -37 -55t-50.5 -15t-54.5 20t-23 44.5t22.5 75.5t22.5 72q0 35 -51 35q-105 0 -228.5 -85t-123.5 -190q0 -38 19 -63l26 -41 q16 -25 16 -42t-17 -33t-83 -61q-230 -149 -230 -238q0 -45 28.5 -62t98.5 -18l50 -1h265l127 273h-42q-64 0 -91 16.5t-27 46.5q0 58 45 76q24 11 90 11h271q67 0 92.5 -16t25.5 -58t-34.5 -59t-100.5 -17h-51l-155 -333q-19 -40 -34.5 -59.5t-38 -25t-73.5 -5.5h-369 q-254 2 -254 210z" />
<glyph unicode="'" horiz-adv-x="282" d="M163 858q0 25 24 76l57 123q28 66 50 79t48 13t45 -18t19 -42.5t-24 -77.5l-57 -123q-25 -54 -44 -73t-49 -19t-49.5 18.5t-19.5 43.5z" />
<glyph unicode="(" d="M304 98q0 126 50 293t90 266q88 215 239 429q69 100 129 167t84 83t52 16t50.5 -23t22.5 -55.5t-36 -73.5q-453 -518 -515 -1092q-6 -69 -25 -95.5t-58.5 -26.5t-61 26.5t-21.5 85.5z" />
<glyph unicode=")" d="M170 65.5q0 32.5 36 72.5q451 513 515 1092q8 70 26 95.5t59 25.5q81 0 81 -103q0 -135 -67 -360q-55 -185 -124.5 -318.5t-114.5 -207t-101 -149.5q-132 -176 -182 -210q-26 -17 -54 -17t-51 23.5t-23 56z" />
<glyph unicode="*" horiz-adv-x="755" d="M348 1061.5q0 34.5 22.5 50t85.5 20.5l59 5l-48 69q-25 37 -25 62.5t21 44.5t52.5 19t64.5 -47l48 -68l25 54l11 22q27 59 63 59t56.5 -19t20.5 -43t-25 -78l-25 -54l59 6l24 2q7 0 10 1h10q76 0 76 -69q0 -37 -21.5 -51.5t-86.5 -20.5l-59 -6l48 -68q24 -34 24 -60 t-22 -46t-52.5 -20t-63.5 47l-48 68l-35 -76q-29 -59 -63.5 -59t-55.5 19t-21 44.5t25 76.5l25 54l-59 -6l-24 -2h-11q-3 -1 -23.5 -1t-41 18t-20.5 52.5z" />
<glyph unicode="+" horiz-adv-x="800" d="M-103 77q0 104 164 209l191 123l-48 182q-10 43 -10 72.5t24 51.5t56.5 22t50.5 -19t30 -65l41 -150l123 79q58 37 79 55t31 38l11 20q23 42 63.5 42t64.5 -24t24 -66t-34 -82t-126 -99l-192 -123l26 -91q14 -50 23.5 -70t26.5 -25.5t53 -5.5h24q8 -1 23 -1h299 q66 0 91.5 -16t25.5 -59t-44 -64q-24 -11 -90 -11h-395q-61 0 -95 14t-55 49.5t-39 106.5l-21 80l-163 -104q-38 -26 -46.5 -37.5t-20.5 -51.5q-20 -71 -81 -71q-38 0 -61.5 26t-23.5 65z" />
<glyph unicode="," horiz-adv-x="683" d="M174 -63q0 28 27 85l28 61q29 61 49.5 81.5t53.5 20.5t56 -20q21 -21 21 -48.5t-26 -84.5l-29 -61q-28 -60 -49 -81t-54.5 -21t-55 20t-21.5 48z" />
<glyph unicode="-" horiz-adv-x="851" d="M205 362q0 58 44 78q23 10 91 10h189q66 0 91.5 -16t25.5 -59t-44 -64q-24 -11 -91 -11h-189q-65 0 -91 16.5t-26 45.5z" />
<glyph unicode="." horiz-adv-x="683" d="M215 76.5q0 42.5 32 75.5t74 33t64.5 -22.5t22.5 -65.5t-29.5 -77t-72.5 -34t-67 24t-24 66.5z" />
<glyph unicode="/" horiz-adv-x="1008" d="M177 60.5q0 32.5 42 91.5l776 1113q33 51 57.5 69.5t56.5 18.5t54.5 -22t22.5 -45q0 -38 -43 -100l-776 -1114q-34 -52 -56.5 -69.5t-55 -17.5t-55.5 21.5t-23 54z" />
<glyph unicode="0" horiz-adv-x="1019" d="M82 346q0 286 188 543q189 251 433 251q79 0 142 -25q201 -80 201 -368q0 -110 -52 -254.5t-141 -263.5q-183 -243 -427 -243q-106 0 -184 46.5t-118 130.5q-42 84 -42 183zM250 363q0 -97 51.5 -156t135.5 -59q148 0 283 182q71 93 114.5 214.5t43.5 199t-12 116.5 q-40 121 -169 121q-78 0 -158 -56t-146 -149q-143 -200 -143 -413z" />
<glyph unicode="1" horiz-adv-x="494" d="M-5 54q0 28 27 85l382 819l-69 -19q-39 -11 -67 -11t-47.5 22.5t-19.5 57.5q0 66 74 81l185 40l32 6q25 5 50.5 5t48.5 -22.5t23 -56t-21 -77.5l-418 -896q-27 -61 -48 -81.5t-55 -20.5t-55.5 20t-21.5 48z" />
<glyph unicode="2" horiz-adv-x="933" d="M-116 88q0 27 9 42t32 28.5t99 49.5q392 179 571 320q215 171 215 325q0 57 -40 90.5t-111 33.5t-145.5 -33t-126.5 -85t-69.5 -85.5t-26.5 -85t-27 -72.5t-55.5 -21t-59.5 27t-22 90.5t47 143.5q101 170 313 246q103 38 220 38t202 -76.5t85 -199.5q0 -173 -172 -351 q-149 -154 -402 -284q-89 -46 -179 -79h319q66 0 91.5 -16t25.5 -59t-44 -64q-24 -11 -90 -11h-539q-120 2 -120 88z" />
<glyph unicode="3" horiz-adv-x="842" d="M-103 133q0 33 24 58t46.5 25t45.5 -9l57 -28q29 -14 82 -25t109.5 -11t125.5 21q139 44 201 143q29 49 29 106.5t-46.5 95t-112.5 37.5t-127.5 -18t-88 -18t-46.5 20t-20 47.5t13.5 44.5t59.5 47l472 307h-297q-64 0 -90.5 16t-26.5 45.5t13 49.5t34 29.5t87 9.5h457 q122 -2 122 -86q0 -31 -19 -52t-82 -64l-383 -255q117 -3 187.5 -73.5t70.5 -171.5q0 -189 -159 -314q-163 -124 -393 -124q-147 0 -246 42t-99 105z" />
<glyph unicode="4" horiz-adv-x="960" d="M17 405.5q0 51.5 56 95.5l690 569q91 79 132.5 79t69.5 -24q27 -25 27 -53t-27 -85l-247 -530h108q66 0 91.5 -16t25.5 -59t-44 -64q-24 -11 -91 -11h-160l-102 -219q-28 -60 -49 -81t-54.5 -21t-55 20t-21.5 47.5t26 85.5l79 168h-300q-84 0 -119 23.5t-35 75zM251 457 h290l178 383z" />
<glyph unicode="5" horiz-adv-x="813" d="M-109 128q0 33 19.5 55.5t43.5 22.5q29 0 104 -33t162 -33q166 0 274 84q113 83 113 192q0 72 -47 112.5t-115 40.5t-124 -12l-40 -9q-23 -4 -49 -4t-49 20t-23 52t21 78l161 356q16 37 30 52.5t40.5 19.5t86.5 4h388q67 0 92.5 -16t25.5 -58t-34.5 -59t-100.5 -17h-386 l-117 -260q41 10 114 10t145.5 -37.5t111.5 -106t39 -146.5q0 -223 -218 -364q-77 -46 -155 -66t-196 -20t-226 41q-91 36 -91 101z" />
<glyph unicode="6" horiz-adv-x="905" d="M71 314q0 109 66 235.5t197 251.5q136 126 313 232.5t250 106.5q33 0 56 -20q21 -21 21 -62.5t-66 -73.5q-418 -201 -579 -452q-79 -121 -79 -207.5t43.5 -131t114.5 -44.5t137.5 39t110.5 104q42 65 42 119t-21 81t-50.5 27t-65 -22t-64 -22t-49 23t-20.5 55 q0 56 57 95.5t152.5 39.5t162.5 -70.5t67 -188t-65 -218.5q-58 -94 -170.5 -159.5t-221.5 -65.5q-212 0 -298 148q-41 71 -41 180z" />
<glyph unicode="7" horiz-adv-x="818" d="M10 73q0 42 47 125q101 180 263.5 376.5t383.5 401.5h-401q-64 0 -90.5 16t-26.5 45.5t13 49.5t34 29.5t87 9.5h531q65 0 91.5 -16t26.5 -49t-13.5 -53t-81.5 -82q-430 -388 -682 -839q-34 -59 -44 -73q-18 -28 -56.5 -28t-60 22.5t-21.5 64.5z" />
<glyph unicode="8" horiz-adv-x="890" d="M37 272.5q0 79.5 33 145.5q45 91 139 143q20 11 44 18t50.5 7t49 -19.5t22.5 -59t-42 -65.5l-44 -26q-36 -21 -57 -56.5t-21 -83.5t43.5 -88.5t106 -40.5t118.5 25.5t87.5 70.5t31.5 102.5t-50 110.5q-26 25 -110.5 91.5t-116.5 119.5q-33 53 -33 123q0 136 123 240 q123 103 287 103q172 0 244 -108q33 -52 33 -119q0 -123 -103 -211q-76 -67 -144 -67q-35 0 -60.5 22.5t-25.5 59.5t56 69.5t78 58.5q20 26 20 63.5t-28 59.5t-94.5 22t-134.5 -51t-68 -114q0 -36 20.5 -69.5t77.5 -79.5q106 -86 143 -133q70 -82 70 -182.5t-54 -186 t-148 -133.5t-201 -48q-212 0 -300 141q-42 66 -42 145.5z" />
<glyph unicode="9" horiz-adv-x="905" d="M30 68.5q0 40.5 65 75.5l44 22q163 84 266 159.5t148 118.5q94 89 148.5 191t54.5 181t-43 119.5t-103 40.5q-115 0 -206 -89q-94 -90 -94 -186q0 -44 20.5 -70t53.5 -26l84 10q35 0 55.5 -19t20.5 -58.5t-43.5 -71t-110.5 -31.5q-112 0 -181 74.5t-69 176.5 q0 188 146 321q67 61 156 97t181.5 36t162.5 -38q146 -77 146 -262q0 -218 -185 -433q-175 -206 -462 -355q-126 -66 -168 -66t-65 21q-22 21 -22 61.5z" />
<glyph unicode=":" horiz-adv-x="683" d="M215 76.5q0 42.5 32 75.5t74 33t64.5 -22.5t22.5 -65.5t-29.5 -77t-72.5 -34t-67 24t-24 66.5zM474 631.5q0 42.5 32 75.5t74 33t64.5 -22.5t22.5 -65.5t-29.5 -77t-72.5 -34t-67 24t-24 66.5z" />
<glyph unicode=";" horiz-adv-x="683" d="M123 -63.5q0 27.5 26 85.5l29 61q29 62 49.5 82t53.5 20t56 -20q21 -21 21 -47.5t-27 -85.5l-28 -61q-28 -60 -49 -81t-54.5 -21t-55 20t-21.5 47.5zM431 631.5q0 42.5 32 75.5t74 33t64.5 -22.5t22.5 -65.5t-29.5 -77t-72.5 -34t-67 24t-24 66.5z" />
<glyph unicode="&#x3c;" horiz-adv-x="796" d="M0 53.5q0 27.5 26 85.5l203 434h-58q-63 0 -90 16.5t-27 53.5q0 80 116 80h129l35 75q49 104 92 167q115 175 335 175q92 0 144.5 -36t52.5 -86t-25 -103l-17 -34q-25 -55 -47.5 -77.5t-54.5 -22.5t-54.5 19.5t-22.5 47t24 79.5l26 58q-22 5 -37 5q-80 0 -139.5 -53.5 t-113.5 -168.5l-21 -45h172q76 0 111.5 -15t35.5 -52t-40 -121l-134 -287q-19 -39 -19 -62q0 -32 37 -32t120.5 66.5t106 79t45 12.5t41.5 -19t19 -47q0 -51 -85 -118q-180 -142 -308 -142q-70 0 -114 42q-43 42 -43 106t50 172l125 267h-190l-226 -485q-28 -60 -49 -81 t-54.5 -21t-55 20t-21.5 47.5z" />
<glyph unicode="=" horiz-adv-x="715" d="M-92 54q0 27 10 44.5t41 54.5l759 910q41 48 61.5 62.5t51.5 14.5t54.5 -22t23.5 -48t-10 -45t-41 -55l-759 -909q-37 -45 -60.5 -61.5t-53 -16.5t-53.5 22t-24 49z" />
<glyph unicode="&#x3e;" horiz-adv-x="796" d="M0 53.5q0 27.5 26 85.5l203 434h-58q-63 0 -90 16.5t-27 53.5q0 80 116 80h129l35 75q49 104 92 167q115 175 335 175q92 0 144 -36.5t52 -87t-22 -95.5l-314 -673q-19 -39 -19 -62q0 -32 36 -32t124 68.5t106.5 79t41.5 10.5t42 -19t19 -47q0 -51 -85 -118 q-180 -142 -308 -142q-70 0 -114 42q-43 42 -43 91.5t11 88t39 98.5l316 679q-22 5 -37 5q-80 0 -138.5 -51.5t-114.5 -170.5l-21 -45q100 -1 100 -68q0 -50 -44 -71q-24 -11 -91 -11h-35l-226 -485q-28 -60 -49 -81t-54.5 -21t-55 20t-21.5 47.5z" />
<glyph unicode="?" horiz-adv-x="1119" d="M270 76.5q0 42.5 32 75.5t74 33t64.5 -22.5t22.5 -65.5t-29.5 -77t-72.5 -34t-67 24t-24 66.5zM328 743.5q0 69.5 40 141.5q85 151 282 222q95 33 209 33t189 -66q74 -66 74 -187q0 -175 -194 -312q-60 -42 -161.5 -100t-142.5 -91t-58 -66l-24 -46q-28 -55 -70 -55 t-64.5 23.5t-22.5 73t64 120.5t172 135l108 62q121 70 171 124t50 112q0 109 -132 109q-79 0 -152 -34.5t-121 -89.5t-48 -110q0 -4 1 -6v-7l6 -33q2 -18 2 -20q0 -35 -21.5 -56.5t-62 -21.5t-67.5 38t-27 107.5z" />
<glyph unicode="@" horiz-adv-x="829" d="M27 245.5q0 117.5 62 236.5q113 219 321 236q55 5 140 5h394q67 0 92.5 -16t25.5 -58t-34.5 -59t-100.5 -17h-303q16 -47 16 -116t-32.5 -159t-88 -160.5t-125 -111t-156.5 -40.5t-149 71t-62 188.5zM205 242q0 -41 19.5 -66.5t52.5 -25.5q72 0 139 136q52 100 52 194 q0 42 -18 67q-19 24 -49 24q-66 0 -131 -117.5t-65 -211.5z" />
<glyph unicode="A" horiz-adv-x="1438" d="M164 627.5q0 48.5 49 70.5q26 12 98 12h231l2 5q239 412 650 581q137 55 226 55q156 0 213 -83q26 -41 26 -101t-69 -209l-402 -862q-32 -66 -54 -88t-57.5 -22t-59 23t-23.5 53t28 89l184 395h-553q-80 -160 -130 -393q-23 -99 -27 -178l-3 -60q-3 -66 -24 -94.5 t-64 -28.5q-92 0 -92 130.5t31 260.5q48 198 114 357l3 6h-169q-38 0 -57 2t-45 16.5t-26 63zM744 710h539l159 341q33 71 33 96q0 42 -55 42t-144 -35q-158 -63 -313 -194q-68 -57 -121 -118.5t-98 -131.5z" />
<glyph unicode="B" horiz-adv-x="1349" d="M191 705q0 165 110 315t292.5 240.5t360.5 90.5q339 0 469 -201q63 -97 63 -224q0 -190 -163 -334q-79 -69 -160 -95q75 -98 75 -190.5t-47 -164.5q-76 -115 -227 -134q-59 -8 -161 -8h-203q-36 0 -53 2t-36 12q-44 26 -44 80q0 38 39 120l373 801q32 66 54 88t58.5 22 t59.5 -22.5t23 -50.5t-29 -92l-367 -787h119q148 0 192 28q62 38 62 107q0 33 -10 58t-48 74.5t-38 92t65 75.5l88 44q92 47 143 119.5t51 154.5q0 116 -91 188t-239.5 72t-288 -67.5t-225 -180t-85.5 -234.5q0 -97 94 -170q32 -23 41 -36t9 -42t-25.5 -54.5t-75 -25.5 t-104.5 46t-88 121t-33 162z" />
<glyph unicode="C" horiz-adv-x="1178" d="M218 374q0 393 365 720q138 123 284 190t265.5 67t182 -49t62.5 -130q0 -65 -29 -139q-83 -207 -112 -235t-63 -28t-57 20.5t-23 52t26 92.5l31 65q46 101 46 139q0 50 -53 50q-113 0 -278 -104q-75 -46 -158 -118.5t-152.5 -169.5t-108 -202.5t-38.5 -186.5t26 -131.5 t69.5 -72.5t87 -26.5t142.5 -4.5h223q68 0 98 -18t30 -68.5t-51 -73.5q-26 -13 -104 -13h-217q-164 0 -210 10q-128 23 -206 126.5t-78 237.5z" />
<glyph unicode="D" horiz-adv-x="1486" d="M191 709q0 164 110 313t291.5 239t363.5 90q361 0 514 -253q71 -121 71 -272q0 -195 -109 -378q-53 -90 -127.5 -166.5t-179 -142.5t-251.5 -109.5t-275 -43.5q-65 0 -98 27.5t-33 73t38 129.5l374 801q30 64 52.5 86.5t59 22.5t59.5 -22.5t23 -50.5t-29 -91l-372 -800 q288 30 487 225q199 193 199 444q0 106 -47 188q-48 81 -137 125.5t-203 44.5q-231 0 -414 -148q-86 -68 -136.5 -155.5t-50.5 -160t22.5 -112.5t62.5 -70.5t50.5 -44.5t10.5 -43t-27 -55t-62 -26q-68 0 -137 71q-100 100 -100 264z" />
<glyph unicode="E" horiz-adv-x="1181" d="M218 269q0 232 375 423q-46 77 -46 167.5t60 185.5t170 172q192 135 383 135q148 0 216 -94q30 -43 30 -92t-16 -99t-60 -148t-67 -123.5t-59.5 -25.5t-60 21.5t-23.5 52t53 146.5t53 145q0 52 -83 52t-215 -75q-195 -115 -195 -253q0 -55 34 -104l26 -39q19 -28 19 -51 t-16 -42t-63 -43l-73 -39q-133 -70 -191 -128t-58 -125.5t69 -97.5q42 -17 179 -17h298q68 0 98.5 -18t30.5 -69t-52 -73q-26 -13 -104 -13h-299q-113 0 -164 7.5t-109.5 34t-99 90t-40.5 137.5z" />
<glyph unicode="F" horiz-adv-x="1591" d="M164 86.5q0 49.5 51 74.5q27 12 104 12h686l174 373h-87q-40 0 -57.5 2t-44.5 17.5t-27 48.5q0 62 49 84q26 12 98 12h145l207 442q-71 34 -203 34t-266.5 -67t-218 -178t-83.5 -231q0 -52 17 -90.5t59 -72t53 -48t11 -45.5t-25.5 -53.5t-75 -22.5t-103.5 46t-85 121 q-33 75 -33 180.5t62 222t172 208.5q111 91 252 143t257 52q288 0 370 -102q25 -31 25 -63.5t-10 -60t-42 -95.5l-149 -320h99q69 0 99 -18.5t30 -65t-49 -68.5q-27 -12 -98 -12h-157l-193 -414q-4 -7 -7 -16q-20 -57 -44 -85q-16 -19 -43.5 -25t-87.5 -6h-696 q-72 0 -103.5 18.5t-31.5 68z" />
<glyph unicode="G" horiz-adv-x="1137" d="M218 393q0 236 168 479q77 115 206 230t275 182t265.5 67t182 -49t62.5 -130q0 -65 -29 -139q-83 -207 -112 -235t-63 -28t-57 20.5t-23 52t26 92.5l31 65q46 101 46 139q0 50 -53 50q-113 0 -278 -104q-75 -46 -158 -118.5t-152.5 -169.5t-108 -202.5t-38.5 -186.5 t26 -131.5t69.5 -72.5t87 -26.5t142.5 -4.5h33l73 157q35 80 62 95t57 15t53 -22.5t23 -51t-29 -91.5l-210 -451q-32 -66 -53.5 -87.5t-57.5 -21.5t-59.5 22.5t-23.5 53.5t28 88l56 121h-6q-123 0 -185 12q-157 29 -232 181q-44 86 -44 200z" />
<glyph unicode="H" horiz-adv-x="1369" d="M164 627.5q0 48.5 49 70.5q26 12 98 12h296l248 532q30 64 52.5 86.5t59 22.5t59.5 -22.5t23 -50.5t-29 -91l-222 -477h417l248 532q30 64 52.5 86.5t59 22.5t59.5 -22.5t23 -50.5t-29 -91l-635 -1363q-27 -61 -51 -85t-60 -24t-59.5 22.5t-23.5 50.5t29 91l310 667h-417 l-209 -450q-28 -63 -52 -87q-25 -23 -60 -23t-58.5 23t-23.5 52.5t28 89.5l184 395h-238q-38 0 -57 2t-45 16.5t-26 63z" />
<glyph unicode="I" horiz-adv-x="856" d="M191 734.5q0 95.5 65 213.5t174 208q238 195 544 195q155 0 155 -106q0 -41 -22.5 -89t-24.5 -52q-3 -10 -6 -14l-464 -994q-28 -63 -52 -87q-25 -23 -60 -23t-58.5 23t-23.5 53t28 89l482 1033l-6 -1q-147 -8 -277 -82t-202.5 -177.5t-72.5 -210t92 -175.5 q34 -28 43.5 -40.5t9.5 -41t-26 -51.5t-62 -23t-71.5 18.5t-77 61.5t-64.5 110t-23 162.5z" />
<glyph unicode="J" horiz-adv-x="862" d="M164 -181q0 44 50 64l30 12q66 24 107.5 75.5t101.5 180.5l481 1033l-6 -1q-145 -8 -275 -82t-203.5 -177.5t-73.5 -210t92 -175.5q34 -28 43.5 -40.5t9.5 -41t-26 -51.5t-62 -23t-71.5 18.5t-77 61.5t-64.5 110t-23 162.5t65 213.5t174 208q238 195 544 195 q155 0 155 -106q0 -42 -24.5 -95.5t-28.5 -59.5l-474 -1015q-81 -176 -167.5 -261t-186.5 -85q-38 0 -64 23t-26 67z" />
<glyph unicode="K" horiz-adv-x="1411" d="M191 734.5q0 95.5 65 213.5t174 208q238 195 544 195q155 0 155 -106q0 -41 -22.5 -89t-24.5 -52q-3 -10 -6 -14l-464 -994q-28 -63 -52 -87q-25 -23 -60 -23t-58.5 23t-23.5 53t28 89l482 1033l-6 -1q-147 -8 -277 -82t-202.5 -177.5t-72.5 -210t92 -175.5 q34 -28 43.5 -40.5t9.5 -41t-26 -51.5t-62 -23t-71.5 18.5t-77 61.5t-64.5 110t-23 162.5zM946 652q0 28 48 66l679 564q49 40 70.5 54.5t50.5 14.5t53.5 -25t24.5 -55.5t-13 -48.5t-59 -56l-667 -554l198 -636q1 -1 3 -8t13.5 -42.5t11.5 -62t-22.5 -49t-60.5 -22.5 t-57.5 22.5t-42.5 91.5l-213 672q-17 57 -17 74z" />
<glyph unicode="L" horiz-adv-x="1284" d="M205 96q0 87 148 395q85 175 169 317q242 409 569 514q90 29 177.5 29t151 -49.5t63.5 -146.5t-105 -297q-28 -55 -47 -71.5t-52.5 -16.5t-57.5 21t-24 51t26 90l30 65q50 109 50 143q0 47 -65 47q-136 0 -286 -121q-195 -156 -366 -490q-100 -198 -174 -378l-10 -25h659 q68 0 98.5 -18t30.5 -68.5t-51 -73.5q-27 -13 -104 -13h-691q-67 0 -91 11q-48 23 -48 85z" />
<glyph unicode="M" horiz-adv-x="1646" d="M191 785q0 94 50.5 197.5t140.5 187.5q194 181 441 181q183 0 312 -114q129 -112 129 -274q78 113 128.5 168.5t122.5 108.5q149 111 285 111q54 0 86.5 -27t32.5 -68.5t-42 -131.5l-479 -1028q-28 -63 -52 -87q-25 -23 -60 -23t-58.5 23t-23.5 52.5t28 89.5l472 1011 q-82 -37 -179 -131t-222 -300l-90 -150q-78 -130 -127.5 -182.5t-87.5 -52.5t-58.5 19.5t-20.5 42t11 44t39 57.5q139 178 139 336t-79 246t-209 88q-168 0 -309 -128q-143 -130 -143 -283q0 -73 68 -139l26 -23q26 -26 26 -57t-26 -55.5t-71 -24.5t-93.5 40t-77.5 111 t-29 165zM390 60q0 28 29 91l390 836q31 65 53.5 87.5t58.5 22.5t59 -22.5t23 -51t-29 -91.5l-390 -836q-28 -63 -52 -87q-25 -23 -60 -23t-58.5 23t-23.5 51z" />
<glyph unicode="N" horiz-adv-x="1434" d="M191 765q0 115 53 221q107 219 351 319q117 47 217 47t173 -20.5t138.5 -62t111.5 -95.5q65 -68 102 -178q13 -40 21 -112v-6l170 364q30 64 52.5 86.5t60 22.5t59.5 -21.5t22 -50.5t-29 -92l-508 -1091q-28 -63 -52 -87q-25 -23 -60 -23t-58.5 23t-23.5 51t29 91l64 138 q48 104 76 181q46 129 46 262.5t-46.5 235.5t-132 157t-198 55t-219 -60t-174 -154.5t-67.5 -185.5t69 -150q33 -30 41.5 -44t8.5 -43t-25 -51t-64 -22q-82 0 -145 90t-63 205zM387 60q0 28 29 91l389 836q30 64 52.5 86.5t60 22.5t59.5 -21.5t22 -52t-28 -90.5l-390 -836 q-28 -63 -52 -87q-25 -23 -60 -23t-58.5 23t-23.5 51z" />
<glyph unicode="O" horiz-adv-x="1450" d="M232 1033q0 66 49 85q24 12 91 12h527q50 0 71.5 -16t21.5 -46t-16 -50t-70 -53t-95.5 -68.5t-78.5 -76.5q-108 -120 -161 -273q-33 -96 -33 -183t56 -152t150 -65t206.5 71t205.5 190t147.5 256t54.5 260t-59 191q-60 67 -160 67q-42 0 -85 -10t-67.5 -10t-44 22.5 t-19.5 50.5q0 54 59 85t153 31q277 0 370 -257q27 -79 27 -183.5t-40 -232.5q-83 -262 -281 -460q-229 -232 -484 -232q-110 0 -191.5 45t-125.5 131.5t-44 225.5t83 307t211 271h-307q-64 1 -92.5 18t-28.5 49z" />
<glyph unicode="P" horiz-adv-x="1352" d="M191 709q0 165 110.5 313.5t293.5 238.5t382 90q226 0 370 -119q141 -119 141 -304q0 -71 -26 -145q-54 -150 -188 -245q-57 -40 -123.5 -66t-110 -26t-70 23t-26.5 60q0 55 61 74l41 12q77 23 134 69t90 112.5t33 132.5q0 158 -163 225q-78 33 -198.5 33t-260 -68 t-225 -180t-85.5 -220t69 -164l42 -32q34 -27 34 -64t-25 -60t-73 -23t-104 47t-89.5 124.5t-33.5 161.5zM446 63q0 31 28 88l404 866q35 80 62 95t56.5 15t52.5 -22.5t23 -52t-29 -90.5l-403 -866q-28 -63 -52 -87q-25 -23 -60.5 -23t-58.5 23t-23 54z" />
<glyph unicode="Q" horiz-adv-x="1231" d="M164 80.5q0 43.5 36 62.5q15 9 111.5 29.5t168.5 45.5q142 49 272 143q247 180 341 398q45 104 45 185q0 154 -99 213q-48 27 -120 27t-163 -44.5t-183 -134t-152.5 -205t-60.5 -207.5q0 -45 18.5 -84t52.5 -69l32 -26q28 -24 28 -57t-23.5 -53.5t-60.5 -20.5 q-88 0 -154 95.5t-66 225.5q0 191 141 387q144 199 351 296q138 65 246 65t175 -28q134 -57 187 -206q26 -75 26 -162q0 -148 -75 -302q-157 -320 -517 -490h310q71 0 99.5 -16.5t28.5 -64.5t-48 -71q-27 -12 -99 -12h-732q-35 0 -50.5 2t-33.5 12q-32 23 -32 66.5z" />
<glyph unicode="R" horiz-adv-x="1338" d="M164 729.5q0 104.5 63 219.5q61 115 171 205.5t256.5 143.5t277 53t222.5 -31q193 -63 270 -219q37 -75 37 -169q0 -140 -94 -266t-257 -197l149 -480q33 -93 33 -122.5t-22.5 -52t-61 -22.5t-59 23.5t-40.5 90.5l-163 516q-1 12 -4 18q-18 46 -18 87t57 66l55 24 q112 50 177 134t65 188.5t-95 175.5t-226 71t-237.5 -39.5t-191.5 -107.5t-134.5 -153.5t-49.5 -181t70 -150.5l38 -29q37 -30 37 -66.5t-24.5 -60t-73 -23.5t-104.5 47.5t-89.5 125t-33.5 182zM420 62q0 30 28 89l403 866q31 63 54 86t59 23t59 -22.5t23 -50.5t-29 -91 l-404 -866q-28 -63 -51.5 -86.5t-59 -23.5t-59 23t-23.5 53z" />
<glyph unicode="S" horiz-adv-x="1366" d="M164 86.5q0 49.5 51 74.5q27 12 104 12h497q49 0 118 3q133 7 133 100q0 53 -53 127q-22 32 -108.5 136.5t-116 165t-29.5 135.5q0 158 127 293q63 66 149 117q173 102 332 102q154 0 220 -93q30 -45 30 -102.5t-30 -132.5t-66 -147l-15 -30q-24 -47 -42.5 -62.5 t-52 -15.5t-57 23t-23.5 49t11 53l46 103q48 110 48 139q0 52 -66 52t-156 -38t-148 -88q-121 -99 -121 -205q0 -39 21.5 -81t94.5 -128q141 -165 171 -253q18 -52 18 -121t-35 -131.5t-105 -99.5q-56 -31 -122.5 -37t-152.5 -6h-537q-72 0 -103.5 18.5t-31.5 68z" />
<glyph unicode="T" horiz-adv-x="633" d="M164 62q0 30 28 89l473 1013h-223q-73 0 -104 19t-31 69.5t51 72.5q25 13 104 13h711q74 0 105 -18.5t31 -67.5t-51 -75q-27 -13 -104 -13h-298l-498 -1068q-28 -63 -52 -87q-25 -23 -60 -23t-58.5 23t-23.5 53z" />
<glyph unicode="U" horiz-adv-x="1296" d="M218 171.5q0 49.5 10 94.5q14 63 94 238l344 738q30 64 52.5 86.5t59 22.5t59.5 -22.5t23 -50.5t-29 -91l-375 -805q-54 -114 -54 -146.5t20.5 -52t57.5 -19.5q92 0 375 242q116 100 249 233l9 10l277 593q30 64 52.5 86.5t60 22.5t59.5 -21.5t22 -50.5t-29 -92 l-508 -1091q-28 -63 -52 -87q-25 -23 -60 -23t-58.5 23t-23.5 51.5t28 90.5l64 137q-308 -302 -517 -302q-131 0 -184 92q-26 44 -26 93.5z" />
<glyph unicode="V" horiz-adv-x="1235" d="M218 189q0 51 17.5 104t68.5 161l367 788q30 65 53.5 87t59.5 22t59 -22.5t23 -50.5t-29 -91l-395 -847q-39 -78 -39 -113q0 -68 71 -68q204 0 412 237q69 78 121 163q104 165 158.5 322.5t71.5 347.5q12 123 94 123t82 -121q0 -161 -76.5 -379t-173 -365t-176.5 -232.5 t-169 -145.5q-182 -123 -362 -123q-110 0 -174 55t-64 148z" />
<glyph unicode="W" horiz-adv-x="1663" d="M218 152q0 69 19 127.5t69 165.5l371 797q31 63 54 86t59 23t59 -22.5t23 -50.5t-29 -91l-398 -856q-39 -85 -39 -115t15.5 -44t40.5 -14q100 0 312 188l16 14l411 882q30 64 52.5 86.5t60 22.5t59.5 -21.5t22 -52.5t-28 -90l-396 -848q-41 -88 -41 -116q0 -55 48 -55 q39 0 108 38q168 94 302 281q152 209 231 476q39 138 47 235t28 125t65 28q82 0 82 -117q0 -229 -137 -540q-66 -149 -138 -256q-141 -209 -315 -331q-171 -121 -320 -121q-74 0 -120 37t-49 104q-184 -141 -344 -141q-95 0 -147.5 48.5t-52.5 117.5z" />
<glyph unicode="X" horiz-adv-x="1521" d="M205 768q0 227 185 406q86 83 196.5 130.5t198.5 47.5q151 0 239 -58q44 -29 83.5 -79t61.5 -121t44 -169l19 -85l336 290q78 66 104 132l13 34q22 55 71 55t76 -28.5t27 -79t-43 -111t-143 -147.5l-397 -339l109 -480q1 -5 3 -11q18 -54 18 -90t-22 -57.5t-61.5 -21.5 t-59.5 24.5t-38 97.5l-96 411l-315 -269q-194 -166 -241 -247q-26 -42 -41.5 -94.5t-25.5 -71.5q-20 -35 -62 -35t-64.5 28t-22.5 73q0 182 277 420l450 389l-34 142q-41 173 -67.5 221.5t-75.5 76.5t-128 28t-177.5 -59.5t-159.5 -153.5t-61 -192q0 -50 15 -82.5t47.5 -64 t42.5 -48.5t10 -43.5t-24 -47.5t-61 -21q-82 0 -144 92t-62 208z" />
<glyph unicode="Y" horiz-adv-x="1310" d="M218 171.5q0 49.5 10 94.5q14 63 94 238l344 738q30 64 52.5 86.5t59 22.5t59.5 -22.5t23 -50.5t-29 -91l-375 -805q-54 -114 -54 -146.5t20.5 -52t57.5 -19.5q92 0 375 242q116 100 240 224l18 19l277 593q30 64 52.5 86.5t60 22.5t59.5 -21.5t22 -50.5t-29 -92 l-586 -1257q-72 -156 -128 -227q-112 -140 -236 -140q-38 0 -64 23t-26 67t50 64l31 12q66 24 108 77t100 179l141 303l-20 -20q-292 -282 -497 -282q-131 0 -184 92q-26 44 -26 93.5z" />
<glyph unicode="Z" horiz-adv-x="1308" d="M218 105q0 51 20 99q37 91 158 215.5t271 232.5t274 188l150 97q233 151 307 227h-525q-52 0 -73.5 2t-48.5 19t-27 67.5t51 72.5q25 13 104 13h584q74 0 111 -26q35 -27 35 -86q0 -89 -88 -180q-91 -93 -328 -249l-187 -121q-454 -293 -579 -503h669q74 0 105 -18.5 t31 -69t-52 -72.5q-26 -13 -104 -13h-703q-79 0 -117 27t-38 78z" />
<glyph unicode="[" d="M191 82q0 33 19 72l494 1059q2 3 3.5 6.5t2.5 8.5q33 97 86 105q32 5 87 5h109q68 0 98 -18t30 -50q0 -64 -48 -84q-25 -12 -99 -12h-106l-471 -1010h83q81 0 107 -14q35 -23 35 -69.5t-49 -68.5q-27 -12 -98 -12h-185q-98 4 -98 82z" />
<glyph unicode="\" horiz-adv-x="1008" d="M313 1283.5q0 23.5 20.5 46t59.5 22.5t61 -28.5t35 -105.5l189 -1089q8 -46 8 -71.5t-20.5 -48.5t-60.5 -23t-60.5 29.5t-34.5 103.5l-189 1090q-8 51 -8 74.5z" />
<glyph unicode="]" d="M130 67.5q0 31.5 14 53.5t37 32.5t96 10.5h106l471 1010h-83q-81 0 -111.5 17.5t-30.5 65t49 69.5q27 12 98 12h185q98 -2 98 -83q0 -32 -19 -71l-494 -1059q-1 -1 -18.5 -40.5t-32 -57.5t-44 -22.5t-84.5 -4.5h-109q-40 0 -57.5 2t-44 18t-26.5 47.5z" />
<glyph unicode="^" horiz-adv-x="752" d="M-8 130.5q0 62.5 57 183.5l149 321q29 62 50 82t54.5 20t55 -19.5t21.5 -48t-27 -85.5l-133 -286q-43 -86 -43 -115t30 -29q62 0 194 114l171 367q29 62 50 82t54 20t55 -19.5t22 -48t-27 -85.5l-156 -334q-18 -40 -18 -60.5t14.5 -29t49.5 -9.5l24 -1h228q67 0 92.5 -16 t25.5 -59t-45 -64q-24 -11 -90 -11h-273q-122 0 -153 31q-18 18 -22 50q-157 -95 -239.5 -95t-126.5 41t-44 103.5z" />
<glyph unicode="_" horiz-adv-x="1024" d="M0 -273h1024v-150h-1024v150z" />
<glyph unicode="`" horiz-adv-x="565" d="M136 1082q0 26 22.5 48.5t52 22.5t44.5 -9.5t51 -51.5l61 -70q62 -73 62 -107t-22 -57t-57.5 -23t-87.5 61l-66 76q-38 44 -48 64q-12 20 -12 46z" />
<glyph unicode="a" horiz-adv-x="753" d="M20 204.5q0 107.5 88 231.5q121 173 343 261q130 53 224.5 53t94.5 -72q0 -34 -22 -50.5t-95.5 -30t-144.5 -43.5q-175 -73 -266 -209q-49 -73 -49 -117t14 -62.5t44.5 -18.5t69.5 29t94 93l9 22q26 62 30 67l31 66q29 62 53.5 86t58.5 24t55 -18.5t21 -44.5t-26 -83 l-33 -69q-11 -26 -17 -36q-38 -71 -38 -96q0 -36 35 -36q22 0 51 17.5t99 70t85 61t37 8.5t43 -18q20 -20 20 -44q0 -61 -109 -136t-169.5 -99.5t-122.5 -24.5q-98 0 -113 87q-67 -51 -109.5 -69t-94.5 -18q-88 0 -139.5 55.5t-51.5 163z" />
<glyph unicode="b" horiz-adv-x="743" d="M-34 78q0 33 36 109l396 851q29 62 50 82q22 20 54.5 20t54.5 -19.5t22 -48t-27 -85.5l-137 -293q75 43 144.5 43t120.5 -57q50 -59 50 -149q0 -128 -94 -255t-244 -208q-152 -82 -300 -82q-126 0 -126 92zM167 161q150 28 266 136q124 111 124 215q0 66 -62 66 q-45 0 -96.5 -31.5t-88.5 -78.5z" />
<glyph unicode="c" horiz-adv-x="640" d="M14 200q0 130 114 272q122 151 295 227q88 38 137.5 38t74.5 -20q23 -21 23 -47.5t-13 -63t-18 -47.5l-54 -117q-28 -61 -68 -61t-60 19.5t-20 50t30 94.5q-145 -81 -229 -217q-39 -64 -39 -107q0 -74 91 -74q52 0 135 26.5t155 61.5l96 47q50 25 79.5 25t47.5 -19 q17 -20 17 -54t-43 -70.5t-145 -83.5q-204 -94 -353 -94q-165 0 -223 99q-30 50 -30 115z" />
<glyph unicode="d" horiz-adv-x="779" d="M27 207.5q0 109.5 84 227.5q80 115 224.5 197.5t313.5 104.5l141 301q30 63 49.5 82.5t53 19.5t55.5 -19.5t22 -47t-27 -86.5l-337 -723q-25 -53 -25 -73.5t10.5 -30t28 -9.5t41.5 15t96 69t91 64.5t40 10.5t42.5 -19.5t21.5 -46.5q0 -55 -124 -141q-90 -64 -155.5 -90.5 t-124.5 -26.5q-88 0 -117 87q-115 -87 -207 -87t-144.5 56t-52.5 165.5zM198 218q0 -29 16.5 -48t43.5 -19q63 0 167 104l142 306q-93 -25 -179 -81.5t-138 -126.5t-52 -135z" />
<glyph unicode="e" horiz-adv-x="573" d="M0 156q0 124 156 206q-28 52 -28 103q0 135 176 222q48 24 105.5 44.5t83.5 20.5t48 -19.5t22 -52t-25.5 -50t-100.5 -49.5l-69 -30q-81 -37 -81 -83q0 -15 9 -38q102 48 132 48t51 -21t21 -49q0 -51 -67 -79l-153 -68q-54 -25 -79 -45.5t-25 -45.5q0 -37 56.5 -37 t160 37.5t190 89.5t114 52t46.5 -19t19 -52.5t-37.5 -66t-148.5 -86.5q-205 -102 -367 -102q-98 0 -153.5 45.5t-55.5 124.5z" />
<glyph unicode="f" horiz-adv-x="650" d="M-137 -258q0 34 10 66t48 117l303 648h-57q-64 0 -91 16.5t-27 46.5q0 54 45 77q23 10 90 10h110l146 315q29 62 50 82q22 20 54.5 20t54.5 -19.5t22 -48t-27 -85.5l-123 -264h178q66 0 91.5 -16t25.5 -59t-44 -64q-24 -11 -90 -11h-166q80 -152 80 -290 q0 -267 -163 -484q-74 -98 -166 -158t-175 -60t-131 45.5t-48 115.5zM38 -228q0 -30 29 -30q48 0 130 91.5t131 211.5t49 228q0 89 -35 173l-258 -554q-46 -98 -46 -120z" />
<glyph unicode="g" horiz-adv-x="725" d="M-220 -240q0 56 45 80q24 11 92 11h292q114 0 164 19.5t50 59.5t-24 54q-25 14 -87 14h-73q-107 0 -163 51.5t-56 148.5q0 100 67 209q70 109 171 182.5t219 117t181 43.5q107 0 107 -72q0 -56 -70 -72l-65 -15q-266 -59 -396 -257q-41 -64 -41 -103t22 -61t58.5 -22 t96.5 24l130 278q21 43 45 63t57 20q67 0 67 -66q0 -9 -13 -49.5t-20 -54.5l-92 -196q-16 -36 -16 -53t35 -65t35 -111t-36.5 -119t-86.5 -81t-106.5 -32.5t-164.5 -7.5h-304q-62 0 -91 16t-29 46z" />
<glyph unicode="h" horiz-adv-x="726" d="M-56 55q0 27 27 84l419 899q30 63 49.5 82.5t53 19.5t55.5 -19.5t22 -48t-27 -85.5l-146 -314q82 64 156.5 64t112 -36t37.5 -101t-56 -179l-86 -171q-23 -48 -23 -65q0 -34 31 -34q28 0 66.5 26.5t92.5 68.5t74 53.5t44 11.5t43 -19t19 -53.5t-58 -85.5 q-123 -107 -236 -146q-57 -21 -114 -21t-100.5 42.5t-43.5 95t19.5 108.5t80 173t60.5 136q0 28 -29 28t-84 -32t-106 -77l-173 -372q-33 -75 -57 -87t-42 -15h-6q-31 0 -53 21t-22 48z" />
<glyph unicode="i" horiz-adv-x="369" d="M-7 132.5q0 62.5 50 173.5l154 329q29 62 49.5 82t53 20t55 -19.5t22.5 -48.5t-27 -85l-156 -336q-20 -45 -20 -62q0 -32 37 -32t120.5 66.5t106 79t45 12.5t41.5 -19t19 -47q0 -49 -93 -124q-169 -136 -300 -136q-70 0 -114 42q-43 42 -43 104.5zM296 858q0 45 29 76 t71 31t67 -24t25 -68.5t-28 -77.5t-71.5 -33t-68 25.5t-24.5 70.5z" />
<glyph unicode="j" horiz-adv-x="360" d="M-233 -348.5q0 28.5 26 85.5l419 898q29 62 50 82t54 20t55 -19.5t22 -47t-27 -86.5l-419 -898q-27 -59 -48.5 -80.5t-54 -21.5t-55 19.5t-22.5 48zM312 858q0 45 29 76t71 31t67 -24t25 -68.5t-28 -77.5t-71.5 -33t-68 25.5t-24.5 70.5z" />
<glyph unicode="k" horiz-adv-x="718" d="M-56 54q0 28 27 85l419 899q30 63 49.5 82.5t53 19.5t55.5 -19.5t22 -48t-27 -85.5l-214 -459q66 56 193 132.5t156 76.5q48 0 73 -38q9 -16 9 -39t-14.5 -37.5t-58.5 -38.5l-147 -90l-106 -73q8 -100 32 -166t37.5 -83t31.5 -17q49 0 212 111q45 30 61.5 38.5t37 8.5 t41.5 -21t21 -50q0 -55 -160 -154q-87 -55 -146.5 -78.5t-113 -23.5t-88.5 24q-78 56 -111 308q-65 -41 -86 -62l-79 -168q-28 -60 -49 -81t-54.5 -21t-55 20t-21.5 48z" />
<glyph unicode="l" horiz-adv-x="369" d="M-7 134.5q0 64.5 50 171.5l342 732q30 63 49.5 82.5t53 19.5t55.5 -19.5t22 -48.5t-27 -85l-344 -739q-20 -45 -20 -62q0 -32 28.5 -32t61 19t92 66.5t82 60t45 12.5t41.5 -19t19 -47q0 -49 -93 -124q-169 -136 -300 -136q-69 0 -113 42t-44 106.5z" />
<glyph unicode="m" horiz-adv-x="1047" d="M-56 54q0 28 27 85l231 496q28 60 49 81t55 21q70 0 76 -68q92 68 164 68q99 0 118 -84q116 84 218 84q62 0 102 -36t40 -87.5t-19 -102t-75 -163.5t-63 -130t-7 -31t9.5 -24.5t28.5 -10.5q31 0 116 67t107 80t46.5 13t43.5 -18.5t19 -51t-57.5 -86.5t-114.5 -90 t-117 -58t-117 -22t-99 39.5t-42 97t18.5 111.5t76 167.5t57.5 139.5t-26 26q-51 0 -154 -85l-184 -394q-28 -60 -49 -81t-54.5 -21t-55 20t-21.5 47.5t26 85.5l148 316q32 72 32 89q0 23 -24 23q-41 0 -176 -108l-173 -371q-28 -60 -49 -81t-54.5 -21t-55 20t-21.5 48z" />
<glyph unicode="n" horiz-adv-x="726" d="M-56 54q0 28 27 86l231 495q29 61 49.5 81.5t55 20.5t55 -19t20.5 -51v-7q32 32 86 54.5t106 22.5t90.5 -36t38.5 -103t-56 -177l-86 -171q-23 -46 -23 -65q0 -34 31 -34q28 0 66.5 26.5t91.5 68t73.5 53.5t45 12t43.5 -19t19 -46q0 -52 -96 -124q-175 -136 -298 -136 q-69 0 -113.5 42t-44.5 94.5t21 109.5t80 173.5t59 135.5q0 28 -29 28t-82 -30.5t-107 -78.5l-174 -372q-30 -63 -49.5 -82.5t-53.5 -19.5t-55.5 20t-21.5 48z" />
<glyph unicode="o" horiz-adv-x="669" d="M27 227q0 202 120 356q119 154 274 154q69 0 119 -29q49 -30 75.5 -86t26.5 -158.5t-55.5 -219.5t-147 -187.5t-190.5 -70.5t-160.5 68.5t-61.5 172.5zM204 254q0 -105 70 -105t140 139q55 109 55 200.5t-67 91.5q-79 0 -151 -158q-47 -109 -47 -168z" />
<glyph unicode="p" horiz-adv-x="750" d="M-233 -348.5q0 28.5 26 85.5l480 1028q30 63 49.5 82.5t53 19.5t55.5 -19.5t22 -45t-33 -102.5q73 37 132 37q116 0 162 -97q23 -48 23 -126t-53.5 -175.5t-148 -176.5t-211 -126t-237.5 -50l-140 -300q-27 -59 -48.5 -80.5t-54 -21.5t-55 19.5t-22.5 48zM168 161 q89 13 186 74.5t154 135.5q56 74 56 138q0 30 -16.5 49.5t-45.5 19.5q-70 0 -185 -99z" />
<glyph unicode="q" horiz-adv-x="748" d="M20 175.5q0 82.5 32 157.5t91 145.5t145 130.5t195.5 100.5t172 40.5t85 -19.5t22.5 -54.5q0 -58 -70 -71q-121 -23 -212.5 -65.5t-156.5 -103.5q-129 -124 -129 -228q0 -28 15 -45.5t39 -17.5q61 0 156 107l4 5l82 175q30 63 49.5 82.5t53 19.5t56.5 -20 q21 -21 21 -47.5t-27 -85.5l-86 -184q-43 -94 -87 -153q177 162 300 231q59 34 87 34t47 -17q17 -19 17 -49.5t-20.5 -49t-113.5 -83.5q-142 -99 -220 -165q-127 -106 -166.5 -157.5t-88.5 -130t-87 -78.5t-61 23t-23 51t29 91l130 279q-46 -37 -116.5 -37t-117.5 53.5 t-47 136z" />
<glyph unicode="r" horiz-adv-x="572" d="M27 149.5q0 73.5 54.5 134.5t140 137.5t96.5 90t11 34.5t-17.5 29.5t-61.5 10.5q-22 -50 -44 -69t-54 -19t-53.5 20t-21.5 47.5t26 85.5l58 123q30 63 49.5 82.5t52.5 19.5t55.5 -19.5t22.5 -47.5q0 -23 -27 -86q7 1 21 1q82 0 134 -41q50 -42 50 -102.5t-34 -112 t-119 -130.5l-79 -73q-62 -56 -62 -88q0 -41 49.5 -41t138.5 38t154 78.5t80.5 48t38.5 7.5t41.5 -19t18.5 -50.5t-29 -61.5t-115 -81q-181 -110 -360 -110q-100 0 -157.5 45t-57.5 118.5z" />
<glyph unicode="s" horiz-adv-x="661" d="M23 210q0 51 24.5 77t69 26t62.5 -51l15 -42q29 -81 93.5 -81t101 38.5t36.5 90t-32.5 134t-37.5 107.5l-19 -40q-28 -60 -49 -81t-54.5 -21t-55 20t-21.5 48t27 85l118 254q39 85 64 98q13 7 42.5 7t51 -19t21.5 -43.5t-3 -32.5l-12 -42q-5 -17 -5 -40q0 -38 36.5 -119 t66.5 -163t30 -151.5t-39 -138t-105.5 -106.5t-143 -38t-140 32t-103 86.5t-39.5 105.5z" />
<glyph unicode="t" horiz-adv-x="502" d="M9 126.5q0 65.5 51 174.5l127 272h-9q-64 0 -91 16.5t-27 45.5q0 57 45 78q21 10 90 10h62l62 132q29 62 49.5 82t53 20t55 -19.5t22.5 -48.5t-27 -85l-37 -81h64q67 0 92.5 -16t25.5 -59t-45 -64q-24 -11 -90 -11h-117l-139 -296q-32 -72 -32 -97t29 -25t82.5 28.5 t122.5 71.5l52 34q34 22 58 22q43 0 65 -35q9 -16 9 -42q0 -53 -169 -150.5t-258 -97.5t-132.5 37.5t-43.5 103z" />
<glyph unicode="u" horiz-adv-x="739" d="M-8 130q0 63 57 184l149 321q29 62 50 82t54.5 20t55 -19.5t21.5 -47t-27 -86.5l-133 -286q-43 -86 -43 -115t30 -29q57 0 194 114l171 367q29 62 50 82t54.5 20t55 -19.5t21.5 -47t-27 -86.5l-147 -316l-13 -26q-21 -46 -21 -59t10.5 -22.5t21.5 -9.5q50 0 192 120 q48 42 78.5 42t50 -19t19.5 -45q0 -48 -85 -117.5t-171 -107.5t-144 -38q-86 0 -123 90q-97 -56 -145.5 -73t-108.5 -17t-103.5 40.5t-43.5 103.5z" />
<glyph unicode="v" horiz-adv-x="698" d="M6 153.5q0 77.5 61 206.5l128 275q29 61 49.5 81.5t53 20.5t55 -19.5t22.5 -48.5t-27 -85l-127 -272q-40 -87 -40 -125.5t45 -38.5q67 0 169 192q3 5 6 11.5t6.5 14t7 14.5t9 19.5t22.5 48.5l87 187q29 62 50 82t54 20t55 -19.5t22 -47t-27 -86.5l-68 -145 q-1 -3 -15 -32.5t-14 -58.5t26.5 -53t62 -24t77.5 20t63.5 20t39.5 -18q17 -20 17 -44q0 -52 -60.5 -90t-155.5 -38t-162 73q-151 -208 -312 -208q-81 0 -131 45q-49 45 -49 122.5z" />
<glyph unicode="w" horiz-adv-x="1044" d="M6 143q0 70 64 207l133 285q28 60 49 81t53.5 21t55 -19.5t22.5 -47.5t-26 -86l-145 -310q-3 -7 -4.5 -11t-3.5 -8q-4 -12 -13.5 -32.5t-9.5 -39.5q0 -35 31 -35q53 0 156 112l5 5q12 38 40 95l128 275q29 62 49.5 82t53 20t55 -19.5t22.5 -47t-27 -86.5l-127 -272 q-40 -87 -40 -125.5t45.5 -38.5t106.5 88q29 40 57 94.5t56 117.5l87 187q29 61 49.5 81.5t53 20.5t55 -19.5t22.5 -48t-26 -85.5l-68 -145q-1 -1 -3 -7q-5 -13 -16 -33t-11 -50t27 -54t63 -24t77.5 20t63 20t39.5 -18q17 -20 17 -44q0 -52 -60.5 -90t-156 -38t-161.5 73 q-151 -208 -312 -208q-119 0 -165 91q-95 -91 -204 -91q-70 0 -113.5 43.5t-43.5 113.5z" />
<glyph unicode="x" horiz-adv-x="787" d="M-103 77q0 104 164 209l191 123l-48 182q-10 43 -10 72.5t24 51.5t56.5 22t50.5 -19t30 -65l41 -150l123 79q58 37 79 55t31 38l11 20q23 42 63.5 42t64.5 -24t24 -66t-34 -82t-126 -99l-192 -123l26 -91q18 -65 30 -83t42 -18q65 0 250 110l48 28q37 22 62.5 22t44 -21 t18.5 -52t-32 -60.5t-133 -88.5q-178 -103 -297 -103q-58 0 -90 16q-59 28 -96 171l-20 77l-163 -104q-38 -26 -46.5 -37.5t-20.5 -51.5q-20 -71 -81 -71q-38 0 -61.5 26t-23.5 65z" />
<glyph unicode="y" horiz-adv-x="724" d="M-237 -224.5q0 45.5 46 64.5q24 11 92 11h291q114 0 164 19.5t50 60.5t-24.5 54t-101.5 14t-112.5 6t-72.5 25t-59.5 59.5t-22.5 101.5t61 190l119 254l16 32q34 70 88 70q32 0 55 -20q21 -21 21 -47.5t-27 -85.5l-127 -272q-33 -72 -33 -107q0 -53 69 -53q37 0 100 24 l214 459q29 62 49.5 82t54 20t55 -19.5t21.5 -47t-27 -86.5l-194 -417q-17 -39 -17 -54.5t35.5 -64.5t35.5 -111t-36 -118q-62 -95 -191 -112q-55 -9 -167 -9h-305q-61 0 -90.5 16t-29.5 61.5z" />
<glyph unicode="z" horiz-adv-x="692" d="M-82 -239q0 150 149 297q71 69 151 110q-25 11 -77 17.5t-71 19t-19 42.5t16.5 49.5t64.5 43.5q236 118 345 227l7 6h-194q-64 0 -91 16.5t-27 46.5q0 54 45 77q23 10 90 10h251q69 0 92 -11q49 -24 49 -83q0 -95 -174 -227q-100 -77 -210 -127q38 -10 60 -30 q46 21 109 36q128 30 241.5 29.5t113.5 -70.5q0 -48 -28.5 -63.5t-135 -23t-188.5 -32.5q25 -46 25 -116.5t-33 -148.5q-67 -161 -220 -238q-73 -36 -153 -36t-134 52t-54 127zM82 -212q0 -24 14 -41t37 -17q63 0 140 84t77 181q0 40 -21 74q-100 -56 -173.5 -139 t-73.5 -142z" />
<glyph unicode="{" horiz-adv-x="1327" d="M218 733q0 97 65 215t174 208q238 195 543 195q156 0 156 -106q0 -42 -22.5 -89.5t-25.5 -53t-5 -12.5l-428 -917h455q74 0 104.5 -18t30.5 -68.5t-51 -73.5q-26 -13 -104 -13h-548q-46 2 -75 24.5t-29 58t21 80.5l477 1021l-7 -1q-146 -8 -275.5 -82t-203 -177.5 t-73.5 -210t92 -175.5q34 -28 43.5 -40.5t9.5 -41.5t-25.5 -51.5t-62 -22.5t-72 18.5t-75.5 60t-64.5 108.5t-24.5 164z" />
<glyph unicode="|" horiz-adv-x="765" d="M20 204.5q0 107.5 88 231.5q121 173 343 261q130 53 224.5 53t94.5 -72q0 -34 -22 -50.5t-95.5 -30t-144.5 -43.5q-175 -73 -266 -209q-49 -73 -49 -117t14 -62.5t44.5 -18.5t69.5 29t94 93l9 22q26 62 30 67l31 66q29 62 53.5 86t58 24t55.5 -18q21 -19 21 -45t-26 -83 l-17 -35q-38 -81 -51.5 -112t-13.5 -54t21 -30t80 -7h213q67 0 92.5 -16t25.5 -59t-45 -64q-24 -11 -90 -11h-331q-62 0 -79.5 11t-22.5 25t-9 40q-67 -51 -110.5 -70.5t-115 -19.5t-123 55.5t-51.5 163z" />
<glyph unicode="}" horiz-adv-x="754" d="M-56 54q0 28 27 85l419 899q30 63 49.5 82.5t53 19.5t55.5 -19.5t22 -48t-27 -85.5l-139 -298q77 48 136.5 48t101.5 -25q86 -53 86 -179t-109 -263q-64 -82 -123 -120q130 31 303 128q47 28 74 28t45 -19t18 -49q0 -58 -116 -120t-256.5 -97t-267.5 -35t-127 70 q0 31 21 46.5t82.5 51t132 102t110.5 134t40 101.5t-8.5 50.5t-23.5 25.5q-18 8 -36 8q-89 0 -187 -111l-176 -376q-28 -60 -49 -81t-54.5 -21t-55 20t-21.5 48z" />
<glyph unicode="~" horiz-adv-x="964" d="M75 650q0 88 80 88q43 0 61.5 -27.5t23.5 -91.5l33 -367l261 394q34 51 54 64t67 13h424q66 0 91.5 -16t25.5 -59t-44 -64q-24 -11 -90 -11h-394l-315 -471q-46 -70 -72 -93t-74 -23t-69 54q-3 7 -11 59l-48 487q-4 43 -4 64z" />
<glyph unicode="&#xa1;" horiz-adv-x="683" d="M207 54.5q0 27.5 27 84.5l310 667q29 62 50 82t54 20t55 -21t22 -48t-27 -84l-311 -667q-25 -57 -47.5 -79.5t-54.5 -22.5t-55 20.5t-23 48zM647 1032.5q0 43.5 32 75.5t74 32t64.5 -22.5t22.5 -65.5t-29.5 -77t-71 -34t-67.5 24q-25 24 -25 67.5z" />
<glyph unicode="&#xa2;" horiz-adv-x="686" d="M82 453q0 100 46.5 209t120.5 183q93 96 217 106l41 87q28 60 49 81t53.5 21t55 -19.5t22.5 -47.5t-26 -86l-36 -76q84 -60 84 -145q0 -35 -22.5 -60.5t-54.5 -25.5t-48.5 13.5t-32.5 46.5q-27 56 -73 56t-96.5 -50.5t-83.5 -129.5t-33 -140t23 -90.5t57 -29.5t80 32 l24 17q31 20 60.5 20t52.5 -20q21 -21 21 -58.5t-32.5 -73t-90 -56.5t-123.5 -21h-4l-50 -108q-28 -60 -49 -81t-53.5 -21t-55.5 21q-22 21 -22 48t26 84l48 104q-95 71 -95 210z" />
<glyph unicode="&#xa3;" horiz-adv-x="1133" d="M-13 69q0 72 88 79q52 6 71 19.5t33 51t35 86.5l48 117h-92q-64 0 -91 15.5t-27 45.5q0 55 36 72t99 17h146q144 288 325 428t349 140q61 0 110 -21q99 -42 99 -143q0 -73 -43 -168.5t-63.5 -118.5t-53 -23t-55 18.5t-22.5 45t34.5 99.5t34.5 99q0 52 -70 52t-162 -63 q-169 -115 -290 -339l-3 -6h254q64 0 90.5 -16t26.5 -59.5t-44 -63.5q-24 -11 -90 -11h-314q-22 -47 -55 -124t-50 -122l-10 -26h414q66 0 91.5 -16t25.5 -59t-44 -64q-24 -11 -91 -11h-622q-64 0 -91 16.5t-27 52.5z" />
<glyph unicode="&#xa4;" horiz-adv-x="727" d="M27 227q0 202 120 356q119 154 274 154q104 0 162.5 -66.5t58.5 -180.5q0 -27 -5 -69l-5 -37q-3 -24 -3 -47t25.5 -45.5t62.5 -22.5t78.5 21t64 21t37.5 -16.5t15 -42.5q0 -54 -61 -93.5t-150 -39.5t-151 63q-125 -196 -300 -196q-100 0 -161.5 68.5t-61.5 172.5z M204 254q0 -105 70 -105t140 139q55 109 55 200.5t-67 91.5q-79 0 -151 -158q-47 -109 -47 -168z" />
<glyph unicode="&#xa5;" horiz-adv-x="983" d="M65 412q0 30 13 50t35.5 29.5t86.5 9.5h180l-141 528q-6 21 -6 46.5t23 45.5t57 20t54.5 -25t40.5 -99l107 -403l240 216q21 19 77.5 68t77 76t39 75.5t36 65t51 16.5t57.5 -27t24 -78.5t-46.5 -114.5t-169.5 -169l-283 -241h144q64 0 90.5 -16t26.5 -59.5t-44 -63.5 q-24 -11 -90 -11h-232l-123 -263q-28 -60 -49 -81t-54.5 -21t-55 20t-21.5 48t27 85l98 212h-153q-65 0 -85 13q-32 18 -32 48z" />
<glyph unicode="&#xa7;" horiz-adv-x="1372" d="M0 156q0 122 156 206q-28 52 -28 103q0 135 176 222q48 24 105.5 44.5t83.5 20.5t48 -19.5t22 -52t-25 -50.5t-101 -49l-69 -30q-81 -37 -81 -83q0 -15 9 -38q102 48 132 48t51 -21t21 -49q0 -51 -67 -79l-153 -68q-54 -25 -79 -45.5t-25 -45.5q0 -37 61 -37t132 28 t113 47q100 46 206 109l71 43q59 35 78 49l-47 182q-11 44 -11 73t24 51t56.5 22t50.5 -19t30 -65l42 -150l122 79q58 37 79 55t31 38l11 20q23 42 63.5 42t64.5 -24t24 -66t-35 -83t-124 -98l-192 -123l25 -91q12 -46 21 -66q15 -35 48 -35q68 0 253 110l48 28 q37 22 62.5 22t44.5 -20.5t19 -52.5t-32 -61t-129 -85q-186 -106 -301 -106q-58 0 -91 16q-59 28 -96 171l-20 77q-413 -264 -668 -264q-98 0 -154 45t-56 125z" />
<glyph unicode="&#xa8;" horiz-adv-x="840" d="M137 984.5q0 42.5 32 75.5t74 33t64.5 -22.5t22.5 -65.5t-29.5 -77t-72.5 -34t-67 24t-24 66.5zM511 984.5q0 42.5 32 75.5t74 33t64.5 -22.5t22.5 -65.5t-29.5 -77t-72.5 -34t-67 24t-24 66.5z" />
<glyph unicode="&#xa9;" horiz-adv-x="1065" d="M-56 54q0 28 27 85l231 496q28 60 49 81t55 21q70 0 76 -68q92 68 164 68q99 0 118 -84q116 84 218 84q89 0 126 -65q17 -32 17 -89t-101 -251q-30 -59 -41 -82l-10 -23q-9 -22 -9 -40.5t14 -26.5t50 -9l23 -1h229q66 0 91.5 -16t25.5 -59t-44 -64q-24 -11 -90 -11h-245 q-78 0 -110 5q-78 12 -108 70q-18 33 -18 71q0 71 81 229l24 46q48 98 48 122t-26 24q-51 0 -154 -85l-184 -394q-28 -60 -49 -81t-54.5 -21t-55 20t-21.5 47.5t26 85.5l148 316q32 72 32 89q0 23 -24 23q-41 0 -176 -108l-173 -371q-28 -60 -49 -81t-54.5 -21t-55 20 t-21.5 48z" />
<glyph unicode="&#xaa;" horiz-adv-x="708" d="M19 224.5q0 29.5 26 87.5l219 467q24 51 36 68q23 32 61 32t60 -19t22 -38.5t-5 -39.5l-11 -35q-7 -20 -7 -52.5t45 -133.5l44 -95q44 -96 44 -175t-39 -141h309q66 0 91.5 -16t25.5 -59t-44 -64q-24 -11 -91 -11h-543q-90 0 -90 80q0 36 19 51q20 15 73 22 q116 17 116 116q0 43 -30 128l-19 55l-18 60l-131 -283q-33 -72 -77 -72t-65 19t-21 48.5z" />
<glyph unicode="&#xab;" horiz-adv-x="916" d="M283 402.5q0 21.5 43 76.5l75 97q38 48 58 63.5t48 15.5t50.5 -19.5t22.5 -46.5t-27 -63l-109 -154l18 -120q9 -66 9 -92t-19.5 -45.5t-53.5 -19.5t-54 20.5t-29 70.5l-27 160q-5 35 -5 56.5zM542 402.5q0 18.5 44 76.5l75 97q38 48 57.5 63.5t47.5 15.5t50.5 -19.5 t22.5 -47t-26 -62.5l-110 -154l18 -120q10 -70 10 -93.5t-20 -43.5t-54 -20t-54 20.5t-29 70.5l-21 125l-5 35q-6 38 -6 56.5z" />
<glyph unicode="&#xac;" horiz-adv-x="382" d="M0 155q0 48 53 162l148 318q29 62 50 82t53 20t54.5 -19.5t22.5 -47.5t-26 -86l-156 -334q-18 -37 -18 -59t13.5 -30.5t50.5 -9.5l23 -1h229q66 0 91.5 -16t25.5 -59t-44 -64q-24 -11 -90 -11h-244q-79 0 -112 5q-75 12 -106 69q-18 33 -18 81zM300 858q0 45 29 76t72 31 t67 -24t24 -68.5t-28 -77.5t-71.5 -33t-68 25.5t-24.5 70.5z" />
<glyph unicode="&#xad;" horiz-adv-x="851" d="M205 362q0 58 44 78q23 10 91 10h189q66 0 91.5 -16t25.5 -59t-44 -64q-24 -11 -91 -11h-189q-65 0 -91 16.5t-26 45.5z" />
<glyph unicode="&#xae;" horiz-adv-x="382" d="M0 155q0 48 53 162l336 721q30 63 49.5 82.5t52.5 19.5t55.5 -19.5t22.5 -48.5t-27 -85l-343 -737q-18 -37 -18 -59t13.5 -30.5t50.5 -9.5l23 -1h229q66 0 91.5 -16t25.5 -59t-44 -64q-24 -11 -90 -11h-244q-79 0 -112 5q-75 12 -106 69q-18 33 -18 81z" />
<glyph unicode="&#xaf;" horiz-adv-x="792" d="M-233 -348.5q0 28.5 26 85.5l480 1028q30 63 49.5 82.5t53 19.5t55.5 -19.5t22 -47t-27 -86.5l-10 -22l6 3q72 42 145 42t122 -55t49 -134.5t-31 -150t-89.5 -136.5t-131.5 -111h420q67 0 92.5 -16t25.5 -59t-44 -64q-24 -11 -91 -11h-574q-70 0 -91 10q-41 17 -41 67.5 t65 88.5l51 29q123 72 194 156t71 158q0 31 -17 51q-18 18 -51 18t-88.5 -31.5t-93.5 -73.5l-367 -787q-27 -59 -48.5 -80.5t-54 -21.5t-55 19.5t-22.5 48z" />
<glyph unicode="&#xb0;" d="M68 0v1365h683v-1365h-683zM82 14h655v1337h-655v-1337z" />
<glyph unicode="&#xb1;" horiz-adv-x="1414" d="M164 86.5q0 49.5 51 74.5q27 12 104 12h686l457 979q-71 34 -203 34t-266.5 -67t-218 -178t-83.5 -231q0 -52 17 -90.5t59 -72t53 -48t11 -45.5t-25.5 -53.5t-75 -22.5t-103.5 46t-85 121q-33 75 -33 180.5t62 222t172 208.5q111 91 252 143t257 52q288 0 370 -102 q25 -31 25 -63.5t-10 -60t-42 -95.5l-418 -898q-4 -7 -7 -16q-19 -55 -40.5 -80.5t-49 -30.5t-92.5 -5h-689q-72 0 -103.5 18.5t-31.5 68z" />
<glyph unicode="&#xb4;" horiz-adv-x="661" d="M136 911q0 30 12.5 46.5t51.5 44.5l151 107q62 44 93 44t55.5 -22.5t24.5 -50.5t-14 -47.5t-56 -48.5l-162 -112q-52 -37 -83.5 -37t-52 23t-20.5 53z" />
<glyph unicode="&#xb5;" horiz-adv-x="783" d="M-56 54q0 28 27 85l419 899q30 63 49.5 82.5t53 19.5t55.5 -19.5t22 -48t-27 -85.5l-137 -295q76 43 149 43t122.5 -55.5t49.5 -131.5q0 -140 -118 -279q-57 -66 -135 -119h424q66 0 91.5 -16t25.5 -59t-44 -64q-24 -11 -90 -11h-577q-132 0 -132 79q0 49 59 79l44 26 q148 88 213 176.5t65 145.5q0 68 -70 68q-40 0 -90 -28.5t-90 -74.5l-179 -383q-28 -60 -49 -81t-54.5 -21t-55 20t-21.5 48z" />
<glyph unicode="&#xb6;" horiz-adv-x="710" d="M-56 54q0 28 27 85l419 899q30 63 49.5 82.5t53 19.5t55.5 -19.5t22 -48t-27 -85.5l-214 -459q56 50 188 129.5t161 79.5q48 0 73 -38q9 -16 9 -39t-14.5 -37.5t-58.5 -38.5l-147 -90l-106 -73q6 -75 28 -151.5t38 -94.5t33.5 -21.5t66.5 -3.5h225q67 0 92.5 -16 t25.5 -59t-45 -64q-24 -11 -90 -11h-291q-70 1 -100.5 12.5t-52.5 42t-43.5 106t-31.5 157.5q-65 -41 -86 -62l-79 -168q-28 -60 -49 -81t-54.5 -21t-55 20t-21.5 48z" />
<glyph unicode="&#xb7;" horiz-adv-x="497" d="M198 567.5q0 42.5 32 75.5t74 33t64.5 -22.5t22.5 -65.5t-29.5 -77t-72.5 -34t-67 24t-24 66.5z" />
<glyph unicode="&#xb8;" d="M68 0v1365h683v-1365h-683zM82 14h655v1337h-655v-1337z" />
<glyph unicode="&#xba;" horiz-adv-x="484" d="M20 147.5q0 55.5 53 169.5l120 256h-10q-64 0 -90.5 16t-26.5 45q0 59 44 79q23 10 90 10h63l61 132q29 62 50 82t54 20t55 -19.5t22 -47t-27 -86.5l-38 -81h65q66 0 91.5 -16t25.5 -59t-44 -64q-24 -11 -90 -11h-118l-151 -323q-18 -40 -18 -60q0 -37 65 -39l23 -1h228 q67 0 92.5 -16t25.5 -59t-45 -64q-24 -11 -90 -11h-244q-78 0 -110 5q-68 10 -95 50q-31 37 -31 92.5z" />
<glyph unicode="&#xbb;" horiz-adv-x="916" d="M249 164q0 26 28 64l134 187l-12 104q-1 10 -6 40q-2 30 -2 44t20 33t52 19q69 0 79 -76l7 -40l9 -62q3 -13 4 -27q6 -54 6 -63q0 -17 -51 -86l-111 -151q-40 -54 -75.5 -54t-58.5 21t-23 47zM505 162.5q0 24.5 29 65.5l134 187l-13 104q0 7 -1 14l-6 57q0 27 20 46 t51 19q68 0 80 -76l16 -102q2 -8 3 -11.5t1 -10t1 -14.5l2 -22q2 -12 2 -27q0 -23 -50 -91l-111 -151q-40 -54 -76 -54t-59 21t-23 45.5z" />
<glyph unicode="&#xbf;" horiz-adv-x="1129" d="M269 234q0 180 199 321q58 42 192.5 117.5t165.5 135.5l24 46q28 55 70 55t64.5 -22.5t22.5 -72t-47 -102.5q-78 -90 -189 -154l-108 -63q-126 -74 -173.5 -125t-47.5 -111q0 -109 132 -109q76 0 151.5 35.5t122.5 90t47 108.5v8q-1 1 -1 5l-6 33q-2 18 -2 20q0 34 22 56 t62.5 22t67 -38t26.5 -109.5t-41 -142.5t-114 -128.5t-166 -90.5t-187 -33q-181 0 -253 117q-34 55 -34 131zM929 1032.5q0 43.5 32 75.5t74 32t64.5 -22.5t22.5 -65.5t-29.5 -77t-72.5 -34t-67 24t-24 67.5z" />
<glyph unicode="&#xc0;" d="M68 0v1365h683v-1365h-683zM82 14h655v1337h-655v-1337z" />
<glyph unicode="&#xc1;" d="M68 0v1365h683v-1365h-683zM82 14h655v1337h-655v-1337z" />
<glyph unicode="&#xc2;" d="M68 0v1365h683v-1365h-683zM82 14h655v1337h-655v-1337z" />
<glyph unicode="&#xc3;" d="M68 0v1365h683v-1365h-683zM82 14h655v1337h-655v-1337z" />
<glyph unicode="&#xc4;" horiz-adv-x="939" d="M-35 79q0 33 36 111l395 848q29 62 50 82q22 20 54.5 20t54.5 -19.5t22 -47t-27 -86.5l-385 -825q91 14 180.5 70.5t150 134t60.5 136.5t-36 69l-26 8q-50 15 -50 63.5t45 70.5q20 9 90 9h475q67 0 92.5 -16t25.5 -59t-45 -64q-24 -11 -90 -11h-313q3 -19 3 -44 q0 -95 -53.5 -191t-148 -177t-211.5 -128t-233 -47t-116 93z" />
<glyph unicode="&#xc5;" horiz-adv-x="631" d="M14 191q0 105 64 211q65 106 164 184q192 151 330 151q38 0 63 -20q23 -21 23 -47.5t-13 -63t-18 -47.5l-54 -117q-28 -61 -68 -61t-60 19.5t-20 50t30 94.5q-66 -36 -128.5 -95.5t-100.5 -122.5t-38 -105t27 -57t114 -15h417q67 0 92.5 -16t25.5 -59t-45 -64 q-24 -11 -90 -11h-415q-98 0 -135 6t-79 29q-86 51 -86 156z" />
<glyph unicode="&#xc6;" horiz-adv-x="537" d="M14 155q0 69 48 123.5t139.5 137t102.5 96t11 34.5t-17.5 29.5t-61.5 10.5q-22 -50 -44 -69t-54 -19t-53.5 20t-21.5 48t26 85l58 123q30 63 49.5 82.5t52.5 19.5t55.5 -19.5t22.5 -47.5q0 -23 -27 -86q7 1 21 1q82 0 134 -41q50 -42 50 -109q0 -35 -21 -80 q-29 -63 -133 -156q-65 -60 -78 -73q-61 -52 -61 -83.5t74 -31.5h366q66 0 91.5 -16t25.5 -59t-44 -64q-24 -11 -91 -11h-381q-108 0 -155 21q-84 38 -84 134z" />
<glyph unicode="&#xc7;" horiz-adv-x="1178" d="M218 385q0 244 168 487q77 115 206 230t275 182t265.5 67t182 -49t62.5 -130q0 -65 -29 -139q-83 -207 -112 -235t-63 -28t-57 20.5t-23 52t26 92.5l31 65q46 101 46 139q0 50 -53 50q-113 0 -278 -104q-75 -46 -158 -118.5t-152.5 -169.5t-108 -202.5t-38.5 -186.5 t26 -131.5t69.5 -72.5t87 -26.5t142.5 -4.5h223q68 0 98 -18t30 -68.5t-51 -73.5q-26 -13 -104 -13h-122l-136 -162q-38 -46 -57 -60.5t-49 -14.5t-52.5 21.5t-22.5 52.5t27 63l85 101h-6q-96 4 -158 27t-111 73q-109 112 -109 284z" />
<glyph unicode="&#xc8;" d="M68 0v1365h683v-1365h-683zM82 14h655v1337h-655v-1337z" />
<glyph unicode="&#xc9;" horiz-adv-x="782" d="M27 207.5q0 109.5 84 227.5q80 115 224.5 197.5t313.5 104.5l141 301q30 63 49.5 82.5t53 19.5t55.5 -19.5t22 -47t-27 -86.5l-332 -712l-11 -25q-20 -45 -20 -62t9.5 -25.5t44 -10.5t81.5 -2h182q66 0 91.5 -16t25.5 -59t-44 -64q-24 -11 -91 -11h-323q-60 2 -88.5 18.5 t-36.5 54.5q-114 -87 -206.5 -87t-145 56t-52.5 165.5zM198 218q0 -29 16.5 -48t43.5 -19q63 0 167 104l142 306q-93 -25 -179 -81.5t-138 -126.5t-52 -135z" />
<glyph unicode="&#xca;" d="M68 0v1365h683v-1365h-683zM82 14h655v1337h-655v-1337z" />
<glyph unicode="&#xcb;" d="M68 0v1365h683v-1365h-683zM82 14h655v1337h-655v-1337z" />
<glyph unicode="&#xcc;" d="M68 0v1365h683v-1365h-683zM82 14h655v1337h-655v-1337z" />
<glyph unicode="&#xcd;" d="M68 0v1365h683v-1365h-683zM82 14h655v1337h-655v-1337z" />
<glyph unicode="&#xce;" d="M68 0v1365h683v-1365h-683zM82 14h655v1337h-655v-1337z" />
<glyph unicode="&#xcf;" d="M68 0v1365h683v-1365h-683zM82 14h655v1337h-655v-1337z" />
<glyph unicode="&#xd1;" horiz-adv-x="566" d="M0 158q0 122 156 204q-28 52 -28 103q0 135 176 222q48 24 105.5 44.5t83.5 20.5t48 -19.5t22 -52t-25 -50.5t-101 -49l-69 -30q-81 -37 -81 -83q0 -15 9 -38q102 48 132 48t51 -21t21 -49q0 -51 -67 -79q-12 -4 -22 -9q-4 -2 -41 -19l-90 -40q-99 -46 -99 -82 q0 -18 18 -23.5t78 -5.5h404q66 0 91.5 -16t25.5 -59t-44 -64q-24 -11 -90 -11h-393q-122 0 -171 20q-100 41 -100 138z" />
<glyph unicode="&#xd2;" d="M68 0v1365h683v-1365h-683zM82 14h655v1337h-655v-1337z" />
<glyph unicode="&#xd3;" d="M68 0v1365h683v-1365h-683zM82 14h655v1337h-655v-1337z" />
<glyph unicode="&#xd4;" d="M68 0v1365h683v-1365h-683zM82 14h655v1337h-655v-1337z" />
<glyph unicode="&#xd5;" d="M68 0v1365h683v-1365h-683zM82 14h655v1337h-655v-1337z" />
<glyph unicode="&#xd6;" horiz-adv-x="637" d="M-137 -258q0 34 10 66t48 117l303 648h-57q-64 0 -91 16.5t-27 46.5q0 54 45 77q23 10 90 10h110l146 315q29 62 50 82q22 20 54.5 20t54.5 -19.5t22 -48t-27 -85.5l-123 -264h332q67 0 92.5 -16t25.5 -59t-45 -64q-24 -11 -90 -11h-320q80 -152 80 -290 q0 -267 -163 -484q-74 -98 -166 -158t-175 -60t-131 45.5t-48 115.5zM38 -228q0 -30 29 -30q48 0 130 91.5t131 211.5t49 228q0 89 -35 173l-258 -554q-46 -98 -46 -120z" />
<glyph unicode="&#xd7;" horiz-adv-x="0" />
<glyph unicode="&#xd8;" horiz-adv-x="746" d="M24 222q0 39 22.5 64.5t63.5 25.5t65 -51l18 -38q35 -71 99.5 -71t96.5 35t32 85.5t-30 129.5l-21 53q-12 30 -17 54l-18 -40q-28 -60 -49 -81t-53.5 -21t-55.5 21q-22 21 -22 48t26 84l118 254q37 84 65 98q13 7 36 7q78 0 78 -73q0 -8 -2 -22l-13 -42q-5 -22 -5 -42 q0 -33 42.5 -128.5t67 -163t24.5 -132t-42 -126.5h311q66 0 91.5 -16t25.5 -59t-44 -64q-24 -11 -90 -11h-522q-73 1 -116 12t-84 40q-98 71 -98 170z" />
<glyph unicode="&#xd9;" d="M68 0v1365h683v-1365h-683zM82 14h655v1337h-655v-1337z" />
<glyph unicode="&#xda;" d="M68 0v1365h683v-1365h-683zM82 14h655v1337h-655v-1337z" />
<glyph unicode="&#xdb;" d="M68 0v1365h683v-1365h-683zM82 14h655v1337h-655v-1337z" />
<glyph unicode="&#xdc;" horiz-adv-x="743" d="M-56 54q0 28 27 85l419 899q30 63 49.5 82.5t53 19.5t55.5 -19.5t22 -48.5t-27 -85l-146 -314q82 64 156.5 64t112 -36t37.5 -101t-56 -179l-86 -171q-19 -37 -19 -60q0 -38 64 -39l24 -1h228q66 0 91.5 -16t25.5 -59t-44 -64q-24 -11 -90 -11h-245q-78 0 -110 5 q-80 12 -108 69q-18 33 -18 74q0 67 81 227l30 58q45 89 45 108q0 28 -29 28t-84 -32t-106 -77l-173 -372q-28 -60 -49 -81t-54.5 -21t-55 20t-21.5 48z" />
<glyph unicode="&#xdf;" horiz-adv-x="842" d="M-56 54q0 28 27 85l232 500q71 149 117 221q87 135 213 210q115 68 234 68q155 0 221 -106q32 -50 32 -116q0 -147 -152 -276q-25 -20 -107 -77q-45 -31 -45 -51t15.5 -66.5t15.5 -84.5q0 -142 -188 -262q-77 -50 -154 -81.5t-120.5 -31.5t-67 22.5t-23.5 59t25 53.5 t113.5 49t165.5 90t77 109q0 24 -15.5 72.5t-15.5 86.5q0 78 112 155l71 50q67 47 95.5 85t28.5 79q0 80 -101 80q-103 0 -206 -97q-54 -50 -93 -112.5t-100 -192.5l-227 -487q-28 -60 -49 -81t-54.5 -21t-55 20t-21.5 48z" />
<glyph unicode="&#xe0;" horiz-adv-x="753" d="M20 204.5q0 107.5 88 231.5q121 173 343 261q130 53 224.5 53t94.5 -72q0 -34 -22 -50.5t-95.5 -30t-144.5 -43.5q-175 -73 -266 -209q-49 -73 -49 -117t14 -62.5t44.5 -18.5t69.5 29t94 93l9 22q26 62 30 67l31 66q29 62 53.5 86t58.5 24t55 -18.5t21 -44.5t-26 -83 l-33 -69q-11 -26 -17 -36q-38 -71 -38 -96q0 -36 35 -36q22 0 51 17.5t99 70t85 61t37 8.5t43 -18q20 -20 20 -44q0 -61 -109 -136t-169.5 -99.5t-122.5 -24.5q-98 0 -113 87q-67 -51 -109.5 -69t-94.5 -18q-88 0 -139.5 55.5t-51.5 163zM478 1082q0 26 22.5 48.5t52 22.5 t44.5 -9.5t51 -51.5l61 -70q62 -73 62 -107t-22 -57t-57.5 -23t-87.5 61l-66 76q-38 44 -48 64q-12 20 -12 46z" />
<glyph unicode="&#xe1;" horiz-adv-x="753" d="M20 204.5q0 107.5 88 231.5q121 173 343 261q130 53 224.5 53t94.5 -72q0 -34 -22 -50.5t-95.5 -30t-144.5 -43.5q-175 -73 -266 -209q-49 -73 -49 -117t14 -62.5t44.5 -18.5t69.5 29t94 93l9 22q26 62 30 67l31 66q29 62 53.5 86t58.5 24t55 -18.5t21 -44.5t-26 -83 l-33 -69q-11 -26 -17 -36q-38 -71 -38 -96q0 -36 35 -36q22 0 51 17.5t99 70t85 61t37 8.5t43 -18q20 -20 20 -44q0 -61 -109 -136t-169.5 -99.5t-122.5 -24.5q-98 0 -113 87q-67 -51 -109.5 -69t-94.5 -18q-88 0 -139.5 55.5t-51.5 163zM425 911q0 30 12.5 46.5t51.5 44.5 l151 107q62 44 93 44t55.5 -22.5t24.5 -50.5t-14 -47.5t-56 -48.5l-162 -112q-52 -37 -83.5 -37t-52 23t-20.5 53z" />
<glyph unicode="&#xe2;" horiz-adv-x="753" d="M20 204.5q0 107.5 88 231.5q121 173 343 261q130 53 224.5 53t94.5 -72q0 -34 -22 -50.5t-95.5 -30t-144.5 -43.5q-175 -73 -266 -209q-49 -73 -49 -117t14 -62.5t44.5 -18.5t69.5 29t94 93l9 22q26 62 30 67l31 66q29 62 53.5 86t58.5 24t55 -18.5t21 -44.5t-26 -83 l-33 -69q-11 -26 -17 -36q-38 -71 -38 -96q0 -36 35 -36q22 0 51 17.5t99 70t85 61t37 8.5t43 -18q20 -20 20 -44q0 -61 -109 -136t-169.5 -99.5t-122.5 -24.5q-98 0 -113 87q-67 -51 -109.5 -69t-94.5 -18q-88 0 -139.5 55.5t-51.5 163zM345 917q0 39 42 69l175 121 q65 45 92 45t44 -10.5t51 -51.5l68 -81q32 -36 41.5 -53.5t9.5 -46t-20.5 -51.5t-48 -23t-46.5 11t-48 45l-69 78l-128 -93q-53 -40 -87 -40t-55 21t-21 60z" />
<glyph unicode="&#xe3;" horiz-adv-x="753" d="M20 204.5q0 107.5 88 231.5q121 173 343 261q130 53 224.5 53t94.5 -72q0 -34 -22 -50.5t-95.5 -30t-144.5 -43.5q-175 -73 -266 -209q-49 -73 -49 -117t14 -62.5t44.5 -18.5t69.5 29t94 93l9 22q26 62 30 67l31 66q29 62 53.5 86t58.5 24t55 -18.5t21 -44.5t-26 -83 l-33 -69q-11 -26 -17 -36q-38 -71 -38 -96q0 -36 35 -36q22 0 51 17.5t99 70t85 61t37 8.5t43 -18q20 -20 20 -44q0 -61 -109 -136t-169.5 -99.5t-122.5 -24.5q-98 0 -113 87q-67 -51 -109.5 -69t-94.5 -18q-88 0 -139.5 55.5t-51.5 163zM322 903.5q0 26.5 25 79.5l32 70 q31 64 50 83t47.5 19t96.5 -41l163 -97l12 27q28 65 46.5 86.5t51.5 21.5t57.5 -22t24.5 -51.5t-22 -76.5l-34 -79q-39 -90 -97 -90q-32 0 -108 44l-155 91l-23 -56q-19 -46 -38.5 -62.5t-52 -16.5t-54.5 22t-22 48.5z" />
<glyph unicode="&#xe4;" horiz-adv-x="753" d="M20 204.5q0 107.5 88 231.5q121 173 343 261q130 53 224.5 53t94.5 -72q0 -34 -22 -50.5t-95.5 -30t-144.5 -43.5q-175 -73 -266 -209q-49 -73 -49 -117t14 -62.5t44.5 -18.5t69.5 29t94 93l9 22q26 62 30 67l31 66q29 62 53.5 86t58.5 24t55 -18.5t21 -44.5t-26 -83 l-33 -69q-11 -26 -17 -36q-38 -71 -38 -96q0 -36 35 -36q22 0 51 17.5t99 70t85 61t37 8.5t43 -18q20 -20 20 -44q0 -61 -109 -136t-169.5 -99.5t-122.5 -24.5q-98 0 -113 87q-67 -51 -109.5 -69t-94.5 -18q-88 0 -139.5 55.5t-51.5 163zM342 984.5q0 42.5 32 75.5t74 33 t64.5 -22.5t22.5 -65.5t-29.5 -77t-72.5 -34t-67 24t-24 66.5zM716 984.5q0 42.5 32 75.5t74 33t64.5 -22.5t22.5 -65.5t-29.5 -77t-72.5 -34t-67 24t-24 66.5z" />
<glyph unicode="&#xe5;" horiz-adv-x="753" d="M20 204.5q0 107.5 88 231.5q121 173 343 261q130 53 224.5 53t94.5 -72q0 -34 -22 -50.5t-95.5 -30t-144.5 -43.5q-175 -73 -266 -209q-49 -73 -49 -117t14 -62.5t44.5 -18.5t69.5 29t94 93l9 22q26 62 30 67l31 66q29 62 53.5 86t58.5 24t55 -18.5t21 -44.5t-26 -83 l-33 -69q-11 -26 -17 -36q-38 -71 -38 -96q0 -36 35 -36q22 0 51 17.5t99 70t85 61t37 8.5t43 -18q20 -20 20 -44q0 -61 -109 -136t-169.5 -99.5t-122.5 -24.5q-98 0 -113 87q-67 -51 -109.5 -69t-94.5 -18q-88 0 -139.5 55.5t-51.5 163zM495 981.5q0 61.5 44 107.5t104 46 t94.5 -34.5t34.5 -94.5t-45 -107t-104.5 -47t-93.5 34t-34 95.5zM590 987.5q0 -21.5 11 -33t27.5 -11.5t33 19.5t16.5 46.5q0 38 -36 38q-22 0 -37 -19t-15 -40.5z" />
<glyph unicode="&#xe6;" horiz-adv-x="1010" d="M7 152q0 155 207 233q99 36 230 45q13 39 13 67q0 81 -85 81q-42 0 -115.5 -22.5t-93 -22.5t-37.5 21t-18 50q0 58 96 95q94 39 202 39q142 0 193 -111q116 110 239 110q75 0 120.5 -43t45.5 -117.5t-57 -140.5q-119 -136 -378 -155q-6 -25 -6 -37q0 -46 30.5 -72t98 -26 t176.5 44q75 34 146.5 74.5t96.5 40.5t44 -18t19 -45q0 -80 -187 -167.5t-333 -87.5q-86 0 -144 31t-77 89l-12 -11q-110 -110 -232 -110q-54 0 -95 20q-87 43 -87 146zM170 170q0 -15 12.5 -27.5t36.5 -12.5t57.5 19.5t63 51.5t56.5 82q-102 -9 -164 -40t-62 -73zM619 432 q91 9 164 49q72 41 72 79q0 33 -38.5 33t-99 -49t-98.5 -112z" />
<glyph unicode="&#xe7;" horiz-adv-x="640" d="M14 190q0 140 114 282q122 151 295 227q88 38 137.5 38t74.5 -20q23 -21 23 -47.5t-13 -63t-18 -47.5l-54 -117q-28 -61 -68 -61t-60 19.5t-20 50t30 94.5q-145 -81 -229 -217q-39 -64 -39 -107q0 -74 91 -74q52 0 135 26.5t155 61.5l96 47q50 25 79.5 25t47.5 -19 q17 -20 17 -49t-22.5 -55.5t-77.5 -59.5q-147 -85 -282 -116l-7 -2l-107 -127q-38 -46 -57 -60.5t-49 -14.5t-52 22t-22 52.5t27 62.5l42 50q-87 12 -137 68t-50 131z" />
<glyph unicode="&#xe8;" horiz-adv-x="573" d="M0 156q0 124 156 206q-28 52 -28 103q0 135 176 222q48 24 105.5 44.5t83.5 20.5t48 -19.5t22 -52t-25.5 -50t-100.5 -49.5l-69 -30q-81 -37 -81 -83q0 -15 9 -38q102 48 132 48t51 -21t21 -49q0 -51 -67 -79l-153 -68q-54 -25 -79 -45.5t-25 -45.5q0 -37 56.5 -37 t160 37.5t190 89.5t114 52t46.5 -19t19 -52.5t-37.5 -66t-148.5 -86.5q-205 -102 -367 -102q-98 0 -153.5 45.5t-55.5 124.5zM380 1082q0 26 22.5 48.5t52 22.5t44.5 -9.5t51 -51.5l61 -70q62 -73 62 -107t-22 -57t-57.5 -23t-87.5 61l-66 76q-38 44 -48 64q-12 20 -12 46z " />
<glyph unicode="&#xe9;" horiz-adv-x="573" d="M0 156q0 124 156 206q-28 52 -28 103q0 135 176 222q48 24 105.5 44.5t83.5 20.5t48 -19.5t22 -52t-25.5 -50t-100.5 -49.5l-69 -30q-81 -37 -81 -83q0 -15 9 -38q102 48 132 48t51 -21t21 -49q0 -51 -67 -79l-153 -68q-54 -25 -79 -45.5t-25 -45.5q0 -37 56.5 -37 t160 37.5t190 89.5t114 52t46.5 -19t19 -52.5t-37.5 -66t-148.5 -86.5q-205 -102 -367 -102q-98 0 -153.5 45.5t-55.5 124.5zM357 911q0 30 12.5 46.5t51.5 44.5l151 107q62 44 93 44t55.5 -22.5t24.5 -50.5t-14 -47.5t-56 -48.5l-162 -112q-52 -37 -83.5 -37t-52 23 t-20.5 53z" />
<glyph unicode="&#xea;" horiz-adv-x="573" d="M0 156q0 124 156 206q-28 52 -28 103q0 135 176 222q48 24 105.5 44.5t83.5 20.5t48 -19.5t22 -52t-25.5 -50t-100.5 -49.5l-69 -30q-81 -37 -81 -83q0 -15 9 -38q102 48 132 48t51 -21t21 -49q0 -51 -67 -79l-153 -68q-54 -25 -79 -45.5t-25 -45.5q0 -37 56.5 -37 t160 37.5t190 89.5t114 52t46.5 -19t19 -52.5t-37.5 -66t-148.5 -86.5q-205 -102 -367 -102q-98 0 -153.5 45.5t-55.5 124.5zM236 917q0 39 42 69l175 121q65 45 92 45t44 -10.5t51 -51.5l68 -81q32 -36 41.5 -53.5t9.5 -46t-20.5 -51.5t-48 -23t-46.5 11t-48 45l-69 78 l-128 -93q-53 -40 -87 -40t-55 21t-21 60z" />
<glyph unicode="&#xeb;" horiz-adv-x="573" d="M0 156q0 124 156 206q-28 52 -28 103q0 135 176 222q48 24 105.5 44.5t83.5 20.5t48 -19.5t22 -52t-25.5 -50t-100.5 -49.5l-69 -30q-81 -37 -81 -83q0 -15 9 -38q102 48 132 48t51 -21t21 -49q0 -51 -67 -79l-153 -68q-54 -25 -79 -45.5t-25 -45.5q0 -37 56.5 -37 t160 37.5t190 89.5t114 52t46.5 -19t19 -52.5t-37.5 -66t-148.5 -86.5q-205 -102 -367 -102q-98 0 -153.5 45.5t-55.5 124.5zM257 984.5q0 42.5 32 75.5t74 33t64.5 -22.5t22.5 -65.5t-29.5 -77t-72.5 -34t-67 24t-24 66.5zM631 984.5q0 42.5 32 75.5t74 33t64.5 -22.5 t22.5 -65.5t-29.5 -77t-72.5 -34t-67 24t-24 66.5z" />
<glyph unicode="&#xec;" horiz-adv-x="369" d="M-7 132.5q0 62.5 50 173.5l154 329q29 62 49.5 82t53 20t55 -19.5t22.5 -48.5t-27 -85l-156 -336q-20 -45 -20 -62q0 -32 37 -32t120.5 66.5t106 79t45 12.5t41.5 -19t19 -47q0 -49 -93 -124q-169 -136 -300 -136q-70 0 -114 42q-43 42 -43 104.5zM275 1087 q0 26 22.5 48.5t52 22.5t44.5 -9.5t51 -51.5l61 -70q62 -73 62 -107t-22 -57t-57.5 -23t-87.5 61l-66 76q-38 44 -48 64q-12 20 -12 46z" />
<glyph unicode="&#xed;" horiz-adv-x="369" d="M-7 132.5q0 62.5 50 173.5l154 329q29 62 49.5 82t53 20t55 -19.5t22.5 -48.5t-27 -85l-156 -336q-20 -45 -20 -62q0 -32 37 -32t120.5 66.5t106 79t45 12.5t41.5 -19t19 -47q0 -49 -93 -124q-169 -136 -300 -136q-70 0 -114 42q-43 42 -43 104.5zM247 911 q0 30 12.5 46.5t51.5 44.5l151 107q62 44 93 44t55.5 -22.5t24.5 -50.5t-14 -47.5t-56 -48.5l-162 -112q-52 -37 -83.5 -37t-52 23t-20.5 53z" />
<glyph unicode="&#xee;" horiz-adv-x="369" d="M-7 132.5q0 62.5 50 173.5l154 329q29 62 49.5 82t53 20t55 -19.5t22.5 -48.5t-27 -85l-156 -336q-20 -45 -20 -62q0 -32 37 -32t120.5 66.5t106 79t45 12.5t41.5 -19t19 -47q0 -49 -93 -124q-169 -136 -300 -136q-70 0 -114 42q-43 42 -43 104.5zM142 917q0 39 42 69 l175 121q65 45 92 45t44 -10.5t51 -51.5l68 -81q32 -36 41.5 -53.5t9.5 -46t-20.5 -51.5t-48 -23t-46.5 11t-48 45l-69 78l-128 -93q-53 -40 -87 -40t-55 21t-21 60z" />
<glyph unicode="&#xef;" horiz-adv-x="369" d="M-7 132.5q0 62.5 50 173.5l154 329q29 62 49.5 82t53 20t55 -19.5t22.5 -48.5t-27 -85l-156 -336q-20 -45 -20 -62q0 -32 37 -32t120.5 66.5t106 79t45 12.5t41.5 -19t19 -47q0 -49 -93 -124q-169 -136 -300 -136q-70 0 -114 42q-43 42 -43 104.5zM169 984.5 q0 42.5 32 75.5t74 33t64.5 -22.5t22.5 -65.5t-29.5 -77t-72.5 -34t-67 24t-24 66.5zM543 984.5q0 42.5 32 75.5t74 33t64.5 -22.5t22.5 -65.5t-29.5 -77t-72.5 -34t-67 24t-24 66.5z" />
<glyph unicode="&#xf1;" horiz-adv-x="726" d="M-56 54q0 28 27 86l231 495q29 61 49.5 81.5t55 20.5t55 -19t20.5 -51v-7q32 32 86 54.5t106 22.5t90.5 -36t38.5 -103t-56 -177l-86 -171q-23 -46 -23 -65q0 -34 31 -34q28 0 66.5 26.5t91.5 68t73.5 53.5t45 12t43.5 -19t19 -46q0 -52 -96 -124q-175 -136 -298 -136 q-69 0 -113.5 42t-44.5 94.5t21 109.5t80 173.5t59 135.5q0 28 -29 28t-82 -30.5t-107 -78.5l-174 -372q-30 -63 -49.5 -82.5t-53.5 -19.5t-55.5 20t-21.5 48zM314 903.5q0 26.5 25 79.5l32 70q31 64 50 83t47.5 19t96.5 -41l163 -97l12 27q28 65 46.5 86.5t51.5 21.5 t57.5 -22t24.5 -51.5t-22 -76.5l-34 -79q-39 -90 -97 -90q-32 0 -108 44l-155 91l-23 -56q-19 -46 -38.5 -62.5t-52 -16.5t-54.5 22t-22 48.5z" />
<glyph unicode="&#xf2;" horiz-adv-x="669" d="M27 227q0 202 120 356q119 154 274 154q69 0 119 -29q49 -30 75.5 -86t26.5 -158.5t-55.5 -219.5t-147 -187.5t-190.5 -70.5t-160.5 68.5t-61.5 172.5zM204 254q0 -105 70 -105t140 139q55 109 55 200.5t-67 91.5q-79 0 -151 -158q-47 -109 -47 -168zM409 1085 q0 26 22.5 48.5t52 22.5t44.5 -9.5t51 -51.5l61 -70q62 -73 62 -107t-22 -57t-57.5 -23t-87.5 61l-66 76q-38 44 -48 64q-12 20 -12 46z" />
<glyph unicode="&#xf3;" horiz-adv-x="669" d="M27 227q0 202 120 356q119 154 274 154q69 0 119 -29q49 -30 75.5 -86t26.5 -158.5t-55.5 -219.5t-147 -187.5t-190.5 -70.5t-160.5 68.5t-61.5 172.5zM204 254q0 -105 70 -105t140 139q55 109 55 200.5t-67 91.5q-79 0 -151 -158q-47 -109 -47 -168zM378 911 q0 30 12.5 46.5t51.5 44.5l151 107q62 44 93 44t55.5 -22.5t24.5 -50.5t-14 -47.5t-56 -48.5l-162 -112q-52 -37 -83.5 -37t-52 23t-20.5 53z" />
<glyph unicode="&#xf4;" horiz-adv-x="669" d="M27 227q0 202 120 356q119 154 274 154q69 0 119 -29q49 -30 75.5 -86t26.5 -158.5t-55.5 -219.5t-147 -187.5t-190.5 -70.5t-160.5 68.5t-61.5 172.5zM204 254q0 -105 70 -105t140 139q55 109 55 200.5t-67 91.5q-79 0 -151 -158q-47 -109 -47 -168zM267 917q0 39 42 69 l175 121q65 45 92 45t44 -10.5t51 -51.5l68 -81q32 -36 41.5 -53.5t9.5 -46t-20.5 -51.5t-48 -23t-46.5 11t-48 45l-69 78l-128 -93q-53 -40 -87 -40t-55 21t-21 60z" />
<glyph unicode="&#xf5;" horiz-adv-x="669" d="M27 227q0 202 120 356q119 154 274 154q69 0 119 -29q49 -30 75.5 -86t26.5 -158.5t-55.5 -219.5t-147 -187.5t-190.5 -70.5t-160.5 68.5t-61.5 172.5zM204 254q0 -105 70 -105t140 139q55 109 55 200.5t-67 91.5q-79 0 -151 -158q-47 -109 -47 -168zM255 903.5 q0 26.5 25 79.5l32 70q31 64 50 83t47.5 19t96.5 -41l163 -97l12 27q28 65 46.5 86.5t51.5 21.5t57.5 -22t24.5 -51.5t-22 -76.5l-34 -79q-39 -90 -97 -90q-32 0 -108 44l-155 91l-23 -56q-19 -46 -38.5 -62.5t-52 -16.5t-54.5 22t-22 48.5z" />
<glyph unicode="&#xf6;" horiz-adv-x="669" d="M27 227q0 202 120 356q119 154 274 154q69 0 119 -29q49 -30 75.5 -86t26.5 -158.5t-55.5 -219.5t-147 -187.5t-190.5 -70.5t-160.5 68.5t-61.5 172.5zM204 254q0 -105 70 -105t140 139q55 109 55 200.5t-67 91.5q-79 0 -151 -158q-47 -109 -47 -168zM283 984.5 q0 42.5 32 75.5t74 33t64.5 -22.5t22.5 -65.5t-29.5 -77t-72.5 -34t-67 24t-24 66.5zM657 984.5q0 42.5 32 75.5t74 33t64.5 -22.5t22.5 -65.5t-29.5 -77t-72.5 -34t-67 24t-24 66.5z" />
<glyph unicode="&#xf7;" horiz-adv-x="1652" d="M0 86.5q0 49.5 51 74.5q27 12 104 12h497q49 0 118 3q133 7 133 100q0 53 -53 127q-22 32 -108.5 136.5t-116 165t-29.5 136.5t34 152q67 152 241 255.5t333 103.5q154 0 220 -93q30 -45 30 -109t-48 -171l-123 -256h124l62 132q29 62 49.5 82t53.5 20t55 -19.5t22 -48.5 t-27 -85l-38 -81h65q67 0 92.5 -16t25.5 -59t-45 -64q-24 -11 -90 -11h-118l-138 -296q-32 -72 -32 -97t29 -25q48 0 204 100l53 34q34 22 58 22q43 0 65 -35q9 -16 9 -42q0 -53 -169 -150.5t-258 -97.5t-132.5 37.5t-43.5 103t51 174.5l127 272h-83q-85 0 -111 12 q-51 23 -51 79q0 18 7 36t10 27t6.5 17t6.5 16l137 320q14 33 14 57q0 51 -65.5 51t-155.5 -38t-149 -88q-121 -99 -121 -205q0 -39 21.5 -81t94.5 -128q141 -165 171 -253q18 -52 18 -121t-35 -131.5t-105 -99.5q-56 -31 -122.5 -37t-152.5 -6h-537q-72 0 -103.5 18.5 t-31.5 68z" />
<glyph unicode="&#xf8;" horiz-adv-x="669" d="M-40 60.5q0 32.5 49 81.5l28 29q-7 32 -7 97t31.5 153t88.5 160.5t128.5 114t146 41.5t133.5 -41q46 41 75.5 41t52.5 -22.5t23 -48.5t-10 -41t-45 -50l-15 -15q6 -40 6 -104t-31 -154q-67 -189 -216 -275q-71 -41 -148 -41t-133 44q-7 -6 -13 -13q-30 -32 -64.5 -32 t-57 21.5t-22.5 54zM207 254q0 -105 70 -105t140 139q54 108 54 200t-67 92q-82 0 -157 -174q-40 -93 -40 -152z" />
<glyph unicode="&#xf9;" horiz-adv-x="739" d="M-8 130q0 63 57 184l149 321q29 62 50 82t54.5 20t55 -19.5t21.5 -47t-27 -86.5l-133 -286q-43 -86 -43 -115t30 -29q57 0 194 114l171 367q29 62 50 82t54.5 20t55 -19.5t21.5 -47t-27 -86.5l-147 -316l-13 -26q-21 -46 -21 -59t10.5 -22.5t21.5 -9.5q50 0 192 120 q48 42 78.5 42t50 -19t19.5 -45q0 -48 -85 -117.5t-171 -107.5t-144 -38q-86 0 -123 90q-97 -56 -145.5 -73t-108.5 -17t-103.5 40.5t-43.5 103.5zM458 1082q0 26 22.5 48.5t52 22.5t44.5 -9.5t51 -51.5l61 -70q62 -73 62 -107t-22 -57t-57.5 -23t-87.5 61l-66 76 q-38 44 -48 64q-12 20 -12 46z" />
<glyph unicode="&#xfa;" horiz-adv-x="739" d="M-8 130q0 63 57 184l149 321q29 62 50 82t54.5 20t55 -19.5t21.5 -47t-27 -86.5l-133 -286q-43 -86 -43 -115t30 -29q57 0 194 114l171 367q29 62 50 82t54.5 20t55 -19.5t21.5 -47t-27 -86.5l-147 -316l-13 -26q-21 -46 -21 -59t10.5 -22.5t21.5 -9.5q50 0 192 120 q48 42 78.5 42t50 -19t19.5 -45q0 -48 -85 -117.5t-171 -107.5t-144 -38q-86 0 -123 90q-97 -56 -145.5 -73t-108.5 -17t-103.5 40.5t-43.5 103.5zM462 911q0 30 12.5 46.5t51.5 44.5l151 107q62 44 93 44t55.5 -22.5t24.5 -50.5t-14 -47.5t-56 -48.5l-162 -112 q-52 -37 -83.5 -37t-52 23t-20.5 53z" />
<glyph unicode="&#xfb;" horiz-adv-x="739" d="M-8 130q0 63 57 184l149 321q29 62 50 82t54.5 20t55 -19.5t21.5 -47t-27 -86.5l-133 -286q-43 -86 -43 -115t30 -29q57 0 194 114l171 367q29 62 50 82t54.5 20t55 -19.5t21.5 -47t-27 -86.5l-147 -316l-13 -26q-21 -46 -21 -59t10.5 -22.5t21.5 -9.5q50 0 192 120 q48 42 78.5 42t50 -19t19.5 -45q0 -48 -85 -117.5t-171 -107.5t-144 -38q-86 0 -123 90q-97 -56 -145.5 -73t-108.5 -17t-103.5 40.5t-43.5 103.5zM332 917q0 39 42 69l175 121q65 45 92 45t44 -10.5t51 -51.5l68 -81q32 -36 41.5 -53.5t9.5 -46t-20.5 -51.5t-48 -23 t-46.5 11t-48 45l-69 78l-128 -93q-53 -40 -87 -40t-55 21t-21 60z" />
<glyph unicode="&#xfc;" horiz-adv-x="739" d="M-8 130q0 63 57 184l149 321q29 62 50 82t54.5 20t55 -19.5t21.5 -47t-27 -86.5l-133 -286q-43 -86 -43 -115t30 -29q57 0 194 114l171 367q29 62 50 82t54.5 20t55 -19.5t21.5 -47t-27 -86.5l-147 -316l-13 -26q-21 -46 -21 -59t10.5 -22.5t21.5 -9.5q50 0 192 120 q48 42 78.5 42t50 -19t19.5 -45q0 -48 -85 -117.5t-171 -107.5t-144 -38q-86 0 -123 90q-97 -56 -145.5 -73t-108.5 -17t-103.5 40.5t-43.5 103.5zM351 984.5q0 42.5 32 75.5t74 33t64.5 -22.5t22.5 -65.5t-29.5 -77t-72.5 -34t-67 24t-24 66.5zM725 984.5q0 42.5 32 75.5 t74 33t64.5 -22.5t22.5 -65.5t-29.5 -77t-72.5 -34t-67 24t-24 66.5z" />
<glyph unicode="&#xff;" horiz-adv-x="724" d="M-237 -224.5q0 45.5 46 64.5q24 11 92 11h291q114 0 164 19.5t50 60.5t-24.5 54t-101.5 14t-112.5 6t-72.5 25t-59.5 59.5t-22.5 101.5t61 190l119 254l16 32q34 70 88 70q32 0 55 -20q21 -21 21 -47.5t-27 -85.5l-127 -272q-33 -72 -33 -107q0 -53 69 -53q37 0 100 24 l214 459q29 62 49.5 82t54 20t55 -19.5t21.5 -47t-27 -86.5l-194 -417q-17 -39 -17 -54.5t35.5 -64.5t35.5 -111t-36 -118q-62 -95 -191 -112q-55 -9 -167 -9h-305q-61 0 -90.5 16t-29.5 61.5zM326 984.5q0 42.5 32 75.5t74 33t64.5 -22.5t22.5 -65.5t-29.5 -77t-72.5 -34 t-67 24t-24 66.5zM700 984.5q0 42.5 32 75.5t74 33t64.5 -22.5t22.5 -65.5t-29.5 -77t-72.5 -34t-67 24t-24 66.5z" />
<glyph unicode="&#x152;" d="M68 0v1365h683v-1365h-683zM82 14h655v1337h-655v-1337z" />
<glyph unicode="&#x153;" horiz-adv-x="1020" d="M27 230q0 106 33 195q71 190 218 273q70 40 139.5 40t119.5 -29.5t72 -81.5q116 110 240 110q75 0 120 -42.5t45 -117.5t-55.5 -139.5t-154 -106t-224.5 -50.5q-6 -19 -6 -50t31.5 -58t76.5 -27q89 0 175.5 36t163 79.5t101.5 43.5t44 -18t19 -45q0 -78 -187.5 -166.5 t-331.5 -88.5q-79 0 -127 25.5t-80 84.5q-100 -111 -205 -111t-166 69t-61 175zM204 254q0 -105 70 -105t140 139q55 109 55 200.5t-67 91.5q-79 0 -151 -158q-47 -109 -47 -168zM629 432q91 9 164 49q72 41 72 79q0 33 -38 33t-97 -47t-101 -114z" />
<glyph unicode="&#x178;" d="M68 0v1365h683v-1365h-683zM82 14h655v1337h-655v-1337z" />
<glyph unicode="&#x2c6;" horiz-adv-x="796" d="M137 917q0 39 42 69l175 121q65 45 92 45t44 -10.5t51 -51.5l68 -81q32 -36 41.5 -53.5t9.5 -46t-20.5 -51.5t-48 -23t-46.5 11t-48 45l-69 78l-128 -93q-53 -40 -87 -40t-55 21t-21 60z" />
<glyph unicode="&#x2dc;" horiz-adv-x="878" d="M136 903.5q0 26.5 25 79.5l32 70q31 64 50 83t47.5 19t96.5 -41l163 -97l12 27q28 65 46.5 86.5t51.5 21.5t57.5 -22t24.5 -51.5t-22 -76.5l-34 -79q-39 -90 -97 -90q-32 0 -108 44l-155 91l-23 -56q-19 -46 -38.5 -62.5t-52 -16.5t-54.5 22t-22 48.5z" />
<glyph unicode="&#x2000;" horiz-adv-x="682" />
<glyph unicode="&#x2001;" horiz-adv-x="1365" />
<glyph unicode="&#x2002;" horiz-adv-x="682" />
<glyph unicode="&#x2003;" horiz-adv-x="1365" />
<glyph unicode="&#x2004;" horiz-adv-x="455" />
<glyph unicode="&#x2005;" horiz-adv-x="341" />
<glyph unicode="&#x2006;" horiz-adv-x="227" />
<glyph unicode="&#x2007;" horiz-adv-x="227" />
<glyph unicode="&#x2008;" horiz-adv-x="170" />
<glyph unicode="&#x2009;" horiz-adv-x="273" />
<glyph unicode="&#x200a;" horiz-adv-x="75" />
<glyph unicode="&#x2010;" horiz-adv-x="851" d="M205 362q0 58 44 78q23 10 91 10h189q66 0 91.5 -16t25.5 -59t-44 -64q-24 -11 -91 -11h-189q-65 0 -91 16.5t-26 45.5z" />
<glyph unicode="&#x2011;" horiz-adv-x="851" d="M205 362q0 58 44 78q23 10 91 10h189q66 0 91.5 -16t25.5 -59t-44 -64q-24 -11 -91 -11h-189q-65 0 -91 16.5t-26 45.5z" />
<glyph unicode="&#x2012;" horiz-adv-x="851" d="M205 362q0 58 44 78q23 10 91 10h189q66 0 91.5 -16t25.5 -59t-44 -64q-24 -11 -91 -11h-189q-65 0 -91 16.5t-26 45.5z" />
<glyph unicode="&#x2013;" horiz-adv-x="1260" d="M205 362q0 58 44 78q23 10 91 10h598q66 0 91.5 -16t25.5 -59t-44 -64q-24 -11 -90 -11h-599q-65 0 -91 16.5t-26 45.5z" />
<glyph unicode="&#x2014;" horiz-adv-x="2457" d="M205 362q0 58 44 78q23 10 91 10h1795q67 0 92.5 -16t25.5 -58t-34.5 -59t-100.5 -17h-1796q-65 0 -91 16.5t-26 45.5z" />
<glyph unicode="&#x2018;" horiz-adv-x="683" d="M453 1130q0 26 24 75l25 55q25 53 45 72t49 19t49 -17.5t20 -43.5t-25 -76l-25 -55q-25 -54 -44 -73t-49 -19t-49.5 18.5t-19.5 44.5z" />
<glyph unicode="&#x2019;" horiz-adv-x="683" d="M453 1130q0 26 24 75l25 55q25 53 45 72t49 19t49 -17.5t20 -43.5t-25 -76l-25 -55q-25 -54 -44 -73t-49 -19t-49.5 18.5t-19.5 44.5z" />
<glyph unicode="&#x201a;" horiz-adv-x="771" d="M-233 -348.5q0 28.5 26 85.5l480 1028q30 63 49.5 82.5t53 19.5t55.5 -19.5t22 -47t-27 -86.5l-11 -25q77 48 136 48t101 -25q86 -52 86 -178t-108 -264q-61 -79 -123 -120q121 26 302 128q49 28 75 28t44 -19t18 -50t-28.5 -59.5t-116 -75t-228.5 -81.5t-267 -35 t-126 70q0 18 6 28q4 10 22 24t77 47.5t129.5 100t110.5 134t40 101.5t-8.5 50.5t-23.5 25.5q-18 8 -47 8t-79.5 -29.5t-96.5 -81.5l-363 -778q-27 -59 -48.5 -80.5t-54 -21.5t-55 19.5t-22.5 48z" />
<glyph unicode="&#x201c;" horiz-adv-x="913" d="M453 1130q0 26 24 75l25 55q25 53 45 72t49 19t49 -17.5t20 -43.5t-25 -76l-25 -55q-25 -54 -44 -73t-49 -19t-49.5 18.5t-19.5 44.5zM683 1130q0 26 24 75l25 55q25 53 45 72t49 19t49 -17.5t20 -43.5t-25 -76l-25 -55q-25 -54 -44 -73t-49 -19t-49.5 18.5t-19.5 44.5z " />
<glyph unicode="&#x201d;" horiz-adv-x="913" d="M453 1130q0 26 24 75l25 55q25 53 45 72t49 19t49 -17.5t20 -43.5t-25 -76l-25 -55q-25 -54 -44 -73t-49 -19t-49.5 18.5t-19.5 44.5zM683 1130q0 26 24 75l25 55q25 53 45 72t49 19t49 -17.5t20 -43.5t-25 -76l-25 -55q-25 -54 -44 -73t-49 -19t-49.5 18.5t-19.5 44.5z " />
<glyph unicode="&#x201e;" horiz-adv-x="913" d="M190 -38.5q0 23.5 24 76.5l26 56q25 55 44 73t48.5 18t49.5 -17.5t20 -42t-24 -77.5l-26 -56q-25 -54 -44 -72.5t-49 -18.5t-49.5 18.5t-19.5 42zM420 -38.5q0 23.5 24 76.5l26 56q25 55 44 73t48.5 18t49.5 -17.5t20 -42t-24 -77.5l-26 -56q-25 -54 -44 -72.5t-49 -18.5 t-49.5 18.5t-19.5 42z" />
<glyph unicode="&#x2022;" horiz-adv-x="722" d="M217 668.5q0 49.5 26 96t72 72t92 25.5q127 0 182 -117q15 -34 15 -76q0 -80 -57.5 -136.5t-123.5 -56.5t-111 26.5t-70 71.5t-25 94.5z" />
<glyph unicode="&#x2026;" horiz-adv-x="2048" d="M215 76.5q0 42.5 32 75.5t74 33t64.5 -22.5t22.5 -65.5t-29.5 -77t-72.5 -34t-67 24t-24 66.5zM897 77.5q0 43.5 32 75.5t74.5 32t65 -22.5t22.5 -65.5t-29.5 -77t-71.5 -34t-68 24q-25 24 -25 67.5zM1580 76.5q0 42.5 32 75.5t74 33t64.5 -22.5t22.5 -65.5t-29.5 -77 t-72.5 -34t-67 24t-24 66.5z" />
<glyph unicode="&#x202f;" horiz-adv-x="273" />
<glyph unicode="&#x2039;" horiz-adv-x="638" d="M262 402.5q0 18.5 44 76.5l75 97q38 48 57.5 63.5t47.5 15.5t51 -20t23 -46.5t-27 -62.5l-109 -154l17 -120q10 -70 10 -93.5t-20 -43.5t-54 -20t-54 20.5t-29 70.5l-20 125l-6 35q-6 38 -6 56.5z" />
<glyph unicode="&#x203a;" horiz-adv-x="638" d="M228 162.5q0 24.5 29 65.5l134 187l-13 104q0 7 -1 14l-7 57q0 27 20 46t52 19q68 0 80 -76l16 -102l9 -82q0 -17 -8 -32.5t-42 -61.5l-111 -151q-40 -54 -76 -54t-59 21t-23 45.5z" />
<glyph unicode="&#x205f;" horiz-adv-x="341" />
<glyph unicode="&#x2122;" horiz-adv-x="743" d="M-56 54q0 28 27 85l231 496q28 60 49 81t55.5 21t55 -19t20.5 -51v-7q34 32 86 54.5t106 22.5t91.5 -36t37.5 -101t-56 -179l-86 -171q-19 -37 -19 -60q0 -38 64 -39l24 -1h228q66 0 91.5 -16t25.5 -59t-44 -64q-24 -11 -90 -11h-245q-78 0 -110 5q-80 12 -108 69 q-18 33 -18 74q0 67 81 227l30 58q45 89 45 108q0 28 -29 28t-84 -32t-106 -77l-173 -372q-28 -60 -49 -81t-54.5 -21t-55 20t-21.5 48z" />
<glyph unicode="&#xe000;" horiz-adv-x="735" d="M0 0v735h735v-735h-735z" />
</font>
</defs>
</svg>
